<svg width="14" height="14" viewBox="0 0 14 14" fill="none" xmlns="http://www.w3.org/2000/svg">
<path opacity="0.5" d="M1.53003 13.5302C1.46137 13.6039 1.37857 13.663 1.28657 13.704C1.19457 13.745 1.09525 13.767 0.994551 13.7688C0.893847 13.7706 0.79382 13.7521 0.700432 13.7143C0.607043 13.6766 0.522209 13.6205 0.450991 13.5493C0.379772 13.478 0.323627 13.3932 0.285906 13.2998C0.248185 13.2064 0.229661 13.1064 0.231438 13.0057C0.233214 12.905 0.255256 12.8057 0.296247 12.7137C0.337239 12.6217 0.396341 12.5389 0.470028 12.4702L1.53003 13.5302ZM0.470028 12.4702L12.47 0.470215L13.53 1.53022L1.53003 13.5302L0.470028 12.4702Z" fill="white"/>
<path d="M4 1H13V10" stroke="white" stroke-width="1.5" stroke-linecap="round" stroke-linejoin="round"/>
</svg>
