<svg width="14" height="11" viewBox="0 0 14 11" fill="none" xmlns="http://www.w3.org/2000/svg">
<path d="M0.636364 4.45458C0.28491 4.45458 0 4.73949 0 5.09094C0 5.44239 0.28491 5.72731 0.636364 5.72731V4.45458ZM13.8136 5.54092C14.0621 5.2924 14.0621 4.88948 13.8136 4.64096L9.76379 0.591172C9.51529 0.342656 9.11241 0.342656 8.86385 0.591172C8.61535 0.839689 8.61535 1.24261 8.86385 1.49113L12.4637 5.09094L8.86385 8.69079C8.61535 8.93929 8.61535 9.34217 8.86385 9.59073C9.11241 9.83923 9.51529 9.83923 9.76379 9.59073L13.8136 5.54092ZM0.636364 5.72731H13.3636V4.45458H0.636364V5.72731Z" fill="#E4132F"/>
</svg>
