<svg width="18" height="19" viewBox="0 0 18 19" fill="none" xmlns="http://www.w3.org/2000/svg">
    <g clip-path="url(#clip0_419_5842)">
        <path d="M12.4527 6.20137L12.4528 6.20118C12.4656 6.20547 12.4795 6.20762 12.4879 6.20882C12.4983 6.2103 12.5104 6.21161 12.5235 6.21279C12.5498 6.21517 12.5832 6.2173 12.621 6.21909C12.697 6.22269 12.7939 6.22506 12.8938 6.22506H13.15V6.75006V7.27506H12.6875C12.4293 7.27506 12.2816 7.27572 12.1918 7.28453C12.1461 7.28901 12.1073 7.29622 12.0731 7.31053C12.0361 7.32606 12.0116 7.347 11.9918 7.36685M12.4527 6.20137L11.9918 7.36685M12.4527 6.20137L12.4468 6.19899C12.4047 6.18191 12.3561 6.15255 12.3294 6.08832C12.3071 6.03457 12.3058 5.96841 12.3125 5.89284C12.3261 5.73868 12.3811 5.47392 12.4836 5.00985C12.5905 4.51998 12.6541 4.24466 12.7186 4.08029C12.7519 3.99565 12.7882 3.93269 12.8363 3.88294C12.8841 3.83354 12.9376 3.80345 12.9925 3.7764L12.4527 6.20137ZM11.9918 7.36685C11.9658 7.39279 11.9443 7.42465 11.9289 7.45534C11.9146 7.48392 11.9 7.52289 11.9 7.56256C11.9 7.60224 11.9146 7.64121 11.9289 7.66978C11.9443 7.70048 11.9658 7.73233 11.9918 7.75827C12.0018 7.76833 12.0172 7.78304 12.0405 7.79584C12.063 7.80819 12.0877 7.81602 12.1153 7.82167C12.1678 7.83241 12.2477 7.83832 12.3775 7.84221C12.6399 7.85006 13.1369 7.85006 14.1045 7.85006H14.1094H15.9938V8.43756V9.02506H14.8969C14.4516 9.02506 14.1487 9.0274 13.9532 9.03331C13.8558 9.03626 13.783 9.04015 13.7319 9.04535C13.7066 9.04793 13.6839 9.05109 13.6651 9.05533C13.6557 9.05744 13.645 9.06033 13.6344 9.06453C13.6254 9.06808 13.6078 9.07587 13.5918 9.09185C13.5613 9.12231 13.546 9.16181 13.5377 9.19305C13.5289 9.22646 13.525 9.26258 13.525 9.29694C13.525 9.33129 13.5289 9.36742 13.5377 9.40083C13.546 9.43207 13.5613 9.47157 13.5918 9.50202C13.6078 9.518 13.6254 9.5258 13.6344 9.52934C13.645 9.53355 13.6557 9.53643 13.6651 9.53855C13.6839 9.54279 13.7066 9.54595 13.7319 9.54852C13.783 9.55373 13.8558 9.55762 13.9532 9.56056C14.1487 9.56647 14.4516 9.56881 14.8969 9.56881H15.9938V10.1563V10.7438H15.0469H14H13.9459L13.9163 10.7891L13.8632 10.8703L13.8621 10.8721L13.8621 10.8721L13.8621 10.8721C13.8409 10.906 13.8128 10.9508 13.811 11.0044C13.8092 11.0579 13.834 11.1038 13.8521 11.1373L13.8527 11.1383L13.854 11.1407L13.854 11.1407C13.8547 11.1418 13.8553 11.143 13.8561 11.1443C13.8661 11.1617 13.883 11.1914 13.9115 11.215C13.9444 11.2422 13.9831 11.2546 14.0238 11.2621C14.0972 11.2756 14.2232 11.2797 14.4465 11.2869L14.4651 11.2875C14.723 11.2969 14.8684 11.3078 14.9743 11.3332C15.0734 11.357 15.1398 11.394 15.2363 11.4671L11.9918 7.36685ZM14.4125 6.22506V6.75006V7.27506H15.3281C15.8139 7.27506 16.0724 7.2758 16.2164 7.28422C16.2875 7.28838 16.3395 7.29475 16.3797 7.30729C16.4273 7.32216 16.4546 7.34444 16.477 7.36685C16.4873 7.37719 16.5027 7.39325 16.5157 7.4184C16.5279 7.44201 16.5354 7.46824 16.5408 7.49776C16.5511 7.55471 16.557 7.64438 16.5609 7.79514C16.5687 8.09955 16.5687 8.6808 16.5687 9.81759V9.82194C16.5687 10.7998 16.5672 11.3836 16.5609 11.7296C16.5578 11.9023 16.5535 12.0179 16.5473 12.0944C16.5443 12.1325 16.5406 12.1635 16.5358 12.1881C16.5316 12.2095 16.5243 12.239 16.5067 12.264L16.5067 12.264L16.505 12.2663C16.4893 12.2872 16.4692 12.3076 16.4406 12.324C16.4135 12.3396 16.3834 12.3489 16.3514 12.3552C16.29 12.3673 16.201 12.3719 16.0687 12.375C15.9647 12.3789 15.8791 12.3807 15.8105 12.376C15.7429 12.3714 15.6788 12.3599 15.6257 12.3279C15.5676 12.2929 15.535 12.2412 15.5161 12.1829C15.4986 12.129 15.491 12.0638 15.4848 11.9934C15.4848 11.9934 15.4848 11.9934 15.4848 11.9935L14.4125 6.22506ZM14.4023 4.48081L14.4022 4.48082L14.4016 4.47733C14.3935 4.43269 14.3798 4.38684 14.3646 4.34906C14.3571 4.33024 14.3496 4.3146 14.343 4.3028C14.337 4.29215 14.3332 4.28745 14.3325 4.28651C14.3323 4.28633 14.3323 4.28629 14.3324 4.28638C14.3263 4.28028 14.3241 4.279 14.3194 4.27716C14.3113 4.27401 14.294 4.26937 14.2555 4.2656C14.1775 4.25799 14.0427 4.25631 13.7875 4.25631C13.5274 4.25631 13.393 4.25801 13.3166 4.26593C13.279 4.26984 13.2636 4.27458 13.2572 4.2773L13.2571 4.27732C13.2549 4.27829 13.2532 4.279 13.2494 4.28264C13.2489 4.28352 13.2484 4.28461 13.2478 4.28591C13.2441 4.29387 13.2391 4.30608 13.233 4.32335C13.2208 4.35775 13.2059 4.40647 13.1886 4.46949C13.1541 4.59521 13.1116 4.7722 13.0633 4.99327L13.0633 4.99355C13.0211 5.18385 12.983 5.36156 12.9553 5.49428C12.9434 5.5514 12.9335 5.59998 12.9261 5.63754C12.9471 5.63929 12.9736 5.64092 13.0066 5.64234C13.1493 5.64848 13.393 5.65006 13.7969 5.65006C14.0669 5.65006 14.3125 5.6485 14.4905 5.64617C14.5568 5.64529 14.6135 5.64432 14.6585 5.64328L14.6473 5.59289L14.6444 5.58C14.6225 5.4813 14.5932 5.34966 14.5617 5.20581C14.5289 5.05588 14.4945 4.89969 14.4656 4.76845L14.4023 4.48081ZM13.7969 7.27506H13.8687V6.75006V6.22506H13.7969H13.725V6.75006V7.27506H13.7969ZM15.9571 11.5387C15.9705 11.5717 15.9829 11.6051 15.9938 11.6374V11.5469V11.2876H15.8594H15.8289C15.8759 11.3576 15.9216 11.451 15.9571 11.5387Z" fill="#C1C3C2" stroke="#C1C3C2" stroke-width="0.2"></path>
        <mask id="path-2-outside-1_419_5842" maskUnits="userSpaceOnUse" x="0.53125" y="4.1875" width="14" height="11" fill="black">
            <rect fill="white" x="0.53125" y="4.1875" width="14" height="11"></rect>
            <path d="M4.33125 5.175C4.22187 5.20937 4.12812 5.275 4 5.4C3.74688 5.65312 3.71875 5.75625 3.71875 6.41563V6.94375L3.60938 7.07188C3.375 7.34375 3.3 7.81875 3.45 8.08125L3.52188 8.20937L3.18438 8.43125C2.75625 8.71562 2.22813 9.14687 1.97188 9.42188C1.75312 9.65625 1.6125 9.91875 1.5625 10.1844C1.54375 10.2875 1.53125 11.0812 1.53125 12.2188C1.53125 13.9875 1.53438 14.0875 1.5875 14.1344C1.63437 14.1781 1.71875 14.1875 2.07188 14.1875C2.34688 14.1875 2.50313 14.175 2.51875 14.1531C2.52812 14.1344 2.56563 14.0125 2.59688 13.8812C2.73438 13.3344 3.01875 12.9312 3.4 12.7437L3.60938 12.6406H7.53125H11.4531L11.6625 12.7437C12.0563 12.9375 12.3375 13.3344 12.4656 13.875C12.5 14.0187 12.5469 14.1469 12.5688 14.1625C12.5906 14.175 12.7937 14.1875 13.0219 14.1875C13.3531 14.1875 13.4438 14.1781 13.4812 14.1375C13.525 14.0938 13.5312 13.875 13.5312 12.2062C13.5312 11.1094 13.5188 10.2531 13.5 10.1594C13.45 9.89062 13.3188 9.6625 13.0656 9.39687C12.775 9.09375 12.2812 8.69062 11.8531 8.41563L11.5375 8.20937L11.5938 8.12812C11.7844 7.85938 11.7156 7.36875 11.4406 7.05312L11.35 6.95L11.3375 6.35938C11.3281 5.82187 11.3219 5.75313 11.2594 5.64062C11.1687 5.47188 10.9875 5.29688 10.8156 5.2125L10.6719 5.14062L7.57812 5.13437C4.89062 5.12813 4.46563 5.13437 4.33125 5.175ZM10.6719 5.55C10.7406 5.58437 10.8406 5.675 10.8906 5.74687C10.9812 5.87813 10.9844 5.89062 10.9938 6.3125L11.0031 6.74375L10.8063 6.67812C10.6188 6.6125 10.5531 6.60938 9.42188 6.60938H8.23438L8.05312 6.69375C7.95312 6.74062 7.8 6.85313 7.7 6.95312L7.525 7.125L7.3875 6.96875C7.29688 6.87187 7.16875 6.77812 7.0375 6.7125L6.82812 6.60938H5.64062C4.50938 6.60938 4.44375 6.6125 4.25625 6.67812L4.05625 6.74375L4.06875 6.33437C4.07812 5.875 4.12188 5.74062 4.29063 5.61875C4.50312 5.46562 4.41875 5.47188 7.57812 5.47812C10.5219 5.48438 10.5469 5.48438 10.6719 5.55ZM6.74062 6.98438C7.09375 7.0875 7.34375 7.43437 7.34375 7.81875V8.03125H5.62188H3.9L3.80938 7.94062C3.58125 7.70937 3.83125 7.225 4.25938 7.06562C4.55 6.95937 4.70938 6.94375 5.675 6.94062C6.39687 6.9375 6.61562 6.94688 6.74062 6.98438ZM10.6406 7.00625C11.0656 7.13438 11.2812 7.33437 11.3313 7.65312C11.3562 7.8125 11.3031 7.94688 11.2 7.99687C11.1438 8.02187 10.6188 8.03125 9.42188 8.03125H7.71875V7.85C7.71875 7.57812 7.79688 7.3875 7.98438 7.19688C8.24062 6.94375 8.27187 6.9375 9.46875 6.95C10.2594 6.95625 10.5188 6.96875 10.6406 7.00625ZM11.4156 8.56875C12.1438 9.0125 12.9094 9.68125 13.0656 10.0156C13.1469 10.1844 13.1562 10.2344 13.1562 10.5375V10.875H7.53125H1.90625V10.5625C1.90625 10.0781 1.95937 9.96875 2.3875 9.54688C2.74063 9.19688 3.1125 8.90937 3.63125 8.58437L3.91563 8.40625H7.53125H11.1469L11.4156 8.56875ZM13.1562 11.7656V12.2812H7.53125H1.90625V11.7656V11.25H7.53125H13.1562V11.7656ZM2.75 12.7719C2.5625 12.9844 2.41563 13.25 2.3125 13.5594L2.22188 13.8281L2.0625 13.8375L1.90625 13.8469V13.2375V12.625H2.39375H2.88125L2.75 12.7719ZM13.1562 13.2375V13.8469L12.9938 13.8375L12.8344 13.8281L12.7812 13.6281C12.7031 13.3469 12.5219 13.0031 12.3375 12.8L12.1813 12.625H12.6687H13.1562V13.2375Z"></path>
        </mask>
        <path d="M4.33125 5.175C4.22187 5.20937 4.12812 5.275 4 5.4C3.74688 5.65312 3.71875 5.75625 3.71875 6.41563V6.94375L3.60938 7.07188C3.375 7.34375 3.3 7.81875 3.45 8.08125L3.52188 8.20937L3.18438 8.43125C2.75625 8.71562 2.22813 9.14687 1.97188 9.42188C1.75312 9.65625 1.6125 9.91875 1.5625 10.1844C1.54375 10.2875 1.53125 11.0812 1.53125 12.2188C1.53125 13.9875 1.53438 14.0875 1.5875 14.1344C1.63437 14.1781 1.71875 14.1875 2.07188 14.1875C2.34688 14.1875 2.50313 14.175 2.51875 14.1531C2.52812 14.1344 2.56563 14.0125 2.59688 13.8812C2.73438 13.3344 3.01875 12.9312 3.4 12.7437L3.60938 12.6406H7.53125H11.4531L11.6625 12.7437C12.0563 12.9375 12.3375 13.3344 12.4656 13.875C12.5 14.0187 12.5469 14.1469 12.5688 14.1625C12.5906 14.175 12.7937 14.1875 13.0219 14.1875C13.3531 14.1875 13.4438 14.1781 13.4812 14.1375C13.525 14.0938 13.5312 13.875 13.5312 12.2062C13.5312 11.1094 13.5188 10.2531 13.5 10.1594C13.45 9.89062 13.3188 9.6625 13.0656 9.39687C12.775 9.09375 12.2812 8.69062 11.8531 8.41563L11.5375 8.20937L11.5938 8.12812C11.7844 7.85938 11.7156 7.36875 11.4406 7.05312L11.35 6.95L11.3375 6.35938C11.3281 5.82187 11.3219 5.75313 11.2594 5.64062C11.1687 5.47188 10.9875 5.29688 10.8156 5.2125L10.6719 5.14062L7.57812 5.13437C4.89062 5.12813 4.46563 5.13437 4.33125 5.175ZM10.6719 5.55C10.7406 5.58437 10.8406 5.675 10.8906 5.74687C10.9812 5.87813 10.9844 5.89062 10.9938 6.3125L11.0031 6.74375L10.8063 6.67812C10.6188 6.6125 10.5531 6.60938 9.42188 6.60938H8.23438L8.05312 6.69375C7.95312 6.74062 7.8 6.85313 7.7 6.95312L7.525 7.125L7.3875 6.96875C7.29688 6.87187 7.16875 6.77812 7.0375 6.7125L6.82812 6.60938H5.64062C4.50938 6.60938 4.44375 6.6125 4.25625 6.67812L4.05625 6.74375L4.06875 6.33437C4.07812 5.875 4.12188 5.74062 4.29063 5.61875C4.50312 5.46562 4.41875 5.47188 7.57812 5.47812C10.5219 5.48438 10.5469 5.48438 10.6719 5.55ZM6.74062 6.98438C7.09375 7.0875 7.34375 7.43437 7.34375 7.81875V8.03125H5.62188H3.9L3.80938 7.94062C3.58125 7.70937 3.83125 7.225 4.25938 7.06562C4.55 6.95937 4.70938 6.94375 5.675 6.94062C6.39687 6.9375 6.61562 6.94688 6.74062 6.98438ZM10.6406 7.00625C11.0656 7.13438 11.2812 7.33437 11.3313 7.65312C11.3562 7.8125 11.3031 7.94688 11.2 7.99687C11.1438 8.02187 10.6188 8.03125 9.42188 8.03125H7.71875V7.85C7.71875 7.57812 7.79688 7.3875 7.98438 7.19688C8.24062 6.94375 8.27187 6.9375 9.46875 6.95C10.2594 6.95625 10.5188 6.96875 10.6406 7.00625ZM11.4156 8.56875C12.1438 9.0125 12.9094 9.68125 13.0656 10.0156C13.1469 10.1844 13.1562 10.2344 13.1562 10.5375V10.875H7.53125H1.90625V10.5625C1.90625 10.0781 1.95937 9.96875 2.3875 9.54688C2.74063 9.19688 3.1125 8.90937 3.63125 8.58437L3.91563 8.40625H7.53125H11.1469L11.4156 8.56875ZM13.1562 11.7656V12.2812H7.53125H1.90625V11.7656V11.25H7.53125H13.1562V11.7656ZM2.75 12.7719C2.5625 12.9844 2.41563 13.25 2.3125 13.5594L2.22188 13.8281L2.0625 13.8375L1.90625 13.8469V13.2375V12.625H2.39375H2.88125L2.75 12.7719ZM13.1562 13.2375V13.8469L12.9938 13.8375L12.8344 13.8281L12.7812 13.6281C12.7031 13.3469 12.5219 13.0031 12.3375 12.8L12.1813 12.625H12.6687H13.1562V13.2375Z" fill="#C1C3C2"></path>
        <path d="M4.33125 5.175C4.22187 5.20937 4.12812 5.275 4 5.4C3.74688 5.65312 3.71875 5.75625 3.71875 6.41563V6.94375L3.60938 7.07188C3.375 7.34375 3.3 7.81875 3.45 8.08125L3.52188 8.20937L3.18438 8.43125C2.75625 8.71562 2.22813 9.14687 1.97188 9.42188C1.75312 9.65625 1.6125 9.91875 1.5625 10.1844C1.54375 10.2875 1.53125 11.0812 1.53125 12.2188C1.53125 13.9875 1.53438 14.0875 1.5875 14.1344C1.63437 14.1781 1.71875 14.1875 2.07188 14.1875C2.34688 14.1875 2.50313 14.175 2.51875 14.1531C2.52812 14.1344 2.56563 14.0125 2.59688 13.8812C2.73438 13.3344 3.01875 12.9312 3.4 12.7437L3.60938 12.6406H7.53125H11.4531L11.6625 12.7437C12.0563 12.9375 12.3375 13.3344 12.4656 13.875C12.5 14.0187 12.5469 14.1469 12.5688 14.1625C12.5906 14.175 12.7937 14.1875 13.0219 14.1875C13.3531 14.1875 13.4438 14.1781 13.4812 14.1375C13.525 14.0938 13.5312 13.875 13.5312 12.2062C13.5312 11.1094 13.5188 10.2531 13.5 10.1594C13.45 9.89062 13.3188 9.6625 13.0656 9.39687C12.775 9.09375 12.2812 8.69062 11.8531 8.41563L11.5375 8.20937L11.5938 8.12812C11.7844 7.85938 11.7156 7.36875 11.4406 7.05312L11.35 6.95L11.3375 6.35938C11.3281 5.82187 11.3219 5.75313 11.2594 5.64062C11.1687 5.47188 10.9875 5.29688 10.8156 5.2125L10.6719 5.14062L7.57812 5.13437C4.89062 5.12813 4.46563 5.13437 4.33125 5.175ZM10.6719 5.55C10.7406 5.58437 10.8406 5.675 10.8906 5.74687C10.9812 5.87813 10.9844 5.89062 10.9938 6.3125L11.0031 6.74375L10.8063 6.67812C10.6188 6.6125 10.5531 6.60938 9.42188 6.60938H8.23438L8.05312 6.69375C7.95312 6.74062 7.8 6.85313 7.7 6.95312L7.525 7.125L7.3875 6.96875C7.29688 6.87187 7.16875 6.77812 7.0375 6.7125L6.82812 6.60938H5.64062C4.50938 6.60938 4.44375 6.6125 4.25625 6.67812L4.05625 6.74375L4.06875 6.33437C4.07812 5.875 4.12188 5.74062 4.29063 5.61875C4.50312 5.46562 4.41875 5.47188 7.57812 5.47812C10.5219 5.48438 10.5469 5.48438 10.6719 5.55ZM6.74062 6.98438C7.09375 7.0875 7.34375 7.43437 7.34375 7.81875V8.03125H5.62188H3.9L3.80938 7.94062C3.58125 7.70937 3.83125 7.225 4.25938 7.06562C4.55 6.95937 4.70938 6.94375 5.675 6.94062C6.39687 6.9375 6.61562 6.94688 6.74062 6.98438ZM10.6406 7.00625C11.0656 7.13438 11.2812 7.33437 11.3313 7.65312C11.3562 7.8125 11.3031 7.94688 11.2 7.99687C11.1438 8.02187 10.6188 8.03125 9.42188 8.03125H7.71875V7.85C7.71875 7.57812 7.79688 7.3875 7.98438 7.19688C8.24062 6.94375 8.27187 6.9375 9.46875 6.95C10.2594 6.95625 10.5188 6.96875 10.6406 7.00625ZM11.4156 8.56875C12.1438 9.0125 12.9094 9.68125 13.0656 10.0156C13.1469 10.1844 13.1562 10.2344 13.1562 10.5375V10.875H7.53125H1.90625V10.5625C1.90625 10.0781 1.95937 9.96875 2.3875 9.54688C2.74063 9.19688 3.1125 8.90937 3.63125 8.58437L3.91563 8.40625H7.53125H11.1469L11.4156 8.56875ZM13.1562 11.7656V12.2812H7.53125H1.90625V11.7656V11.25H7.53125H13.1562V11.7656ZM2.75 12.7719C2.5625 12.9844 2.41563 13.25 2.3125 13.5594L2.22188 13.8281L2.0625 13.8375L1.90625 13.8469V13.2375V12.625H2.39375H2.88125L2.75 12.7719ZM13.1562 13.2375V13.8469L12.9938 13.8375L12.8344 13.8281L12.7812 13.6281C12.7031 13.3469 12.5219 13.0031 12.3375 12.8L12.1813 12.625H12.6687H13.1562V13.2375Z" stroke="#C1C3C2" stroke-width="0.4" mask="url(#path-2-outside-1_419_5842)"></path>
    </g>
    <defs>
        <clipPath id="clip0_419_5842">
            <rect width="18" height="18" fill="white" transform="translate(0 0.307617)"></rect>
        </clipPath>
    </defs>
</svg>