<svg xmlns="http://www.w3.org/2000/svg" xmlns:xlink="http://www.w3.org/1999/xlink" version="1.1" id="Слой_1" x="0px" y="0px" viewBox="0 0 36.1 35.6" style="enable-background:new 0 0 36.1 35.6;" xml:space="preserve">
<style type="text/css">
	.st0{fill:#FFFFFF;}
	.st1{fill:#e0e0e0;}
</style>
<g>
	<polygon class="st0" points="-145.5,0.6 -146.1,0 -148.3,2.2 -150.4,0 -151,0.6 -148.9,2.8 -151,4.9 -150.4,5.6 -148.3,3.4    -146.1,5.6 -145.5,4.9 -147.7,2.8  "/>
	<polygon class="st0" points="-115.3,0.6 -115.9,0 -118,2.2 -120.2,0 -120.8,0.6 -118.6,2.8 -120.8,4.9 -120.2,5.6 -118,3.4    -115.9,5.6 -115.3,4.9 -117.4,2.8  "/>
	<polygon class="st0" points="-85,0.6 -85.6,0 -87.8,2.2 -89.9,0 -90.6,0.6 -88.4,2.8 -90.6,4.9 -89.9,5.6 -87.8,3.4 -85.6,5.5    -85,4.9 -87.2,2.8  "/>
	<polygon class="st0" points="-54.8,0.6 -55.4,0 -57.5,2.2 -59.7,0 -60.3,0.6 -58.1,2.8 -60.3,4.9 -59.7,5.6 -57.5,3.4 -55.4,5.6    -54.8,4.9 -56.9,2.8  "/>
	<polygon class="st0" points="-24.5,0.6 -25.1,0 -27.3,2.2 -29.4,0 -30.1,0.6 -27.9,2.8 -30.1,4.9 -29.4,5.6 -27.3,3.4 -25.1,5.6    -24.5,4.9 -26.7,2.8  "/>
	<polygon class="st1" points="5.7,0.6 5.1,0 3,2.2 0.8,0 0.2,0.6 2.4,2.8 0.2,4.9 0.8,5.6 3,3.4 5.1,5.5 5.7,4.9 3.6,2.8  "/>
	<polygon class="st1" points="36,0.6 35.4,0 33.2,2.2 31.1,0 30.4,0.6 32.6,2.8 30.4,4.9 31.1,5.6 33.2,3.4 35.4,5.5 36,4.9    33.8,2.8  "/>
	<polygon class="st1" points="66.2,0.6 65.6,0 63.5,2.2 61.3,0 60.7,0.6 62.9,2.8 60.7,4.9 61.3,5.6 63.5,3.4 65.6,5.6 66.2,4.9    64.1,2.8  "/>
	<polygon class="st1" points="96.5,0.6 95.9,0 93.7,2.2 91.6,0 90.9,0.6 93.1,2.8 90.9,4.9 91.6,5.6 93.7,3.4 95.9,5.5 96.5,4.9    94.3,2.8  "/>
	<polygon class="st1" points="126.7,0.6 126.1,0 124,2.2 121.8,0 121.2,0.6 123.4,2.8 121.2,4.9 121.8,5.6 124,3.4 126.1,5.5    126.7,4.9 124.6,2.8  "/>
	<polygon class="st1" points="157,0.6 156.4,0 154.2,2.2 152.1,0 151.4,0.6 153.6,2.8 151.4,4.9 152.1,5.6 154.2,3.4 156.4,5.6    157,4.9 154.8,2.8  "/>
	<polygon class="st1" points="187.2,0.6 186.6,0 184.5,2.2 182.3,0 181.7,0.6 183.9,2.8 181.7,4.9 182.3,5.6 184.5,3.4 186.6,5.5    187.2,4.9 185.1,2.8  "/>
	<polygon class="st1" points="217.5,0.6 216.9,0 214.7,2.2 212.6,0 211.9,0.6 214.1,2.8 211.9,4.9 212.6,5.6 214.7,3.4 216.9,5.5    217.5,4.9 215.3,2.8  "/>
	<polygon class="st1" points="247.7,0.6 247.1,0 245,2.2 242.8,0 242.2,0.6 244.4,2.8 242.2,4.9 242.8,5.6 245,3.4 247.1,5.6    247.7,4.9 245.6,2.8  "/>
	<polygon class="st1" points="278,0.6 277.4,0 275.2,2.2 273,0 272.4,0.6 274.6,2.8 272.4,4.9 273,5.6 275.2,3.4 277.4,5.6 278,4.9    275.8,2.8  "/>
	<polygon class="st0" points="-145.5,30.7 -146.1,30.1 -148.3,32.3 -150.4,30.1 -151,30.7 -148.9,32.9 -151,35.1 -150.4,35.7    -148.3,33.5 -146.1,35.7 -145.5,35.1 -147.7,32.9  "/>
	<polygon class="st0" points="-115.3,30.8 -115.9,30.1 -118,32.3 -120.2,30.1 -120.8,30.7 -118.6,32.9 -120.8,35.1 -120.2,35.7    -118,33.5 -115.9,35.7 -115.3,35.1 -117.4,32.9  "/>
	<polygon class="st0" points="-85,30.8 -85.6,30.1 -87.8,32.3 -89.9,30.1 -90.6,30.7 -88.4,32.9 -90.6,35.1 -89.9,35.7 -87.8,33.5    -85.6,35.7 -85,35.1 -87.2,32.9  "/>
	<polygon class="st0" points="-54.8,30.7 -55.4,30.1 -57.5,32.3 -59.7,30.1 -60.3,30.7 -58.1,32.9 -60.3,35.1 -59.7,35.7    -57.5,33.5 -55.4,35.7 -54.8,35.1 -56.9,32.9  "/>
	<polygon class="st0" points="-24.5,30.8 -25.1,30.1 -27.3,32.3 -29.4,30.1 -30.1,30.7 -27.9,32.9 -30.1,35.1 -29.4,35.7    -27.3,33.5 -25.1,35.7 -24.5,35.1 -26.7,32.9  "/>
	<polygon class="st1" points="5.7,30.8 5.1,30.1 3,32.3 0.8,30.1 0.2,30.7 2.4,32.9 0.2,35.1 0.8,35.7 3,33.5 5.1,35.7 5.7,35.1    3.6,32.9  "/>
	<polygon class="st1" points="36,30.8 35.4,30.1 33.2,32.3 31.1,30.1 30.4,30.7 32.6,32.9 30.4,35.1 31.1,35.7 33.2,33.5 35.4,35.7    36,35.1 33.8,32.9  "/>
	<polygon class="st1" points="66.2,30.8 65.6,30.1 63.5,32.3 61.3,30.1 60.7,30.7 62.9,32.9 60.7,35.1 61.3,35.7 63.5,33.5    65.6,35.7 66.2,35.1 64.1,32.9  "/>
	<polygon class="st1" points="96.5,30.8 95.9,30.1 93.7,32.3 91.6,30.1 90.9,30.7 93.1,32.9 90.9,35.1 91.6,35.7 93.7,33.5    95.9,35.7 96.5,35.1 94.3,32.9  "/>
	<polygon class="st1" points="126.7,30.8 126.1,30.1 124,32.3 121.8,30.1 121.2,30.7 123.4,32.9 121.2,35.1 121.8,35.7 124,33.5    126.1,35.7 126.7,35.1 124.6,32.9  "/>
	<polygon class="st1" points="157,30.8 156.4,30.1 154.2,32.3 152.1,30.1 151.4,30.7 153.6,32.9 151.4,35.1 152.1,35.7 154.2,33.5    156.4,35.7 157,35.1 154.8,32.9  "/>
	<polygon class="st1" points="187.2,30.8 186.6,30.1 184.5,32.3 182.3,30.1 181.7,30.7 183.9,32.9 181.7,35.1 182.3,35.7    184.5,33.5 186.6,35.7 187.2,35.1 185.1,32.9  "/>
	<polygon class="st1" points="217.5,30.8 216.9,30.1 214.7,32.3 212.6,30.1 211.9,30.7 214.1,32.9 211.9,35.1 212.6,35.7    214.7,33.5 216.9,35.7 217.5,35.1 215.3,32.9  "/>
	<polygon class="st1" points="247.7,30.8 247.1,30.1 245,32.3 242.8,30.1 242.2,30.7 244.4,32.9 242.2,35.1 242.8,35.7 245,33.5    247.1,35.7 247.7,35.1 245.6,32.9  "/>
	<polygon class="st1" points="278,30.8 277.4,30.1 275.2,32.3 273,30.1 272.4,30.7 274.6,32.9 272.4,35.1 273,35.7 275.2,33.5    277.4,35.7 278,35.1 275.8,32.9  "/>
	<polygon class="st0" points="-145.5,60.9 -146.1,60.3 -148.3,62.4 -150.4,60.2 -151,60.9 -148.9,63 -151,65.2 -150.4,65.8    -148.3,63.6 -146.1,65.8 -145.5,65.2 -147.7,63  "/>
	<polygon class="st0" points="-115.3,60.9 -115.9,60.3 -118,62.4 -120.2,60.2 -120.8,60.9 -118.6,63 -120.8,65.2 -120.2,65.8    -118,63.6 -115.9,65.8 -115.3,65.2 -117.4,63  "/>
	<polygon class="st0" points="-85,60.9 -85.6,60.3 -87.8,62.4 -89.9,60.2 -90.6,60.9 -88.4,63 -90.6,65.2 -89.9,65.8 -87.8,63.6    -85.6,65.8 -85,65.2 -87.2,63  "/>
	<polygon class="st0" points="-54.8,60.9 -55.4,60.3 -57.5,62.4 -59.7,60.2 -60.3,60.9 -58.1,63 -60.3,65.2 -59.7,65.8 -57.5,63.6    -55.4,65.8 -54.8,65.2 -56.9,63  "/>
	<polygon class="st0" points="-24.5,60.9 -25.1,60.3 -27.3,62.4 -29.4,60.2 -30.1,60.9 -27.9,63 -30.1,65.2 -29.4,65.8 -27.3,63.6    -25.1,65.8 -24.5,65.2 -26.7,63  "/>
	<polygon class="st1" points="5.7,60.9 5.1,60.3 3,62.4 0.8,60.2 0.2,60.9 2.4,63 0.2,65.2 0.8,65.8 3,63.6 5.1,65.8 5.7,65.2    3.6,63  "/>
	<polygon class="st1" points="36,60.9 35.4,60.3 33.2,62.4 31.1,60.2 30.4,60.9 32.6,63 30.4,65.2 31.1,65.8 33.2,63.6 35.4,65.8    36,65.2 33.8,63  "/>
	<polygon class="st1" points="66.2,60.9 65.6,60.3 63.5,62.4 61.3,60.2 60.7,60.9 62.9,63 60.7,65.2 61.3,65.8 63.5,63.6 65.6,65.8    66.2,65.2 64.1,63  "/>
	<polygon class="st1" points="96.5,60.9 95.9,60.3 93.7,62.4 91.6,60.2 90.9,60.9 93.1,63 90.9,65.2 91.6,65.8 93.7,63.6 95.9,65.8    96.5,65.2 94.3,63  "/>
	<polygon class="st1" points="126.7,60.9 126.1,60.3 124,62.4 121.8,60.2 121.2,60.9 123.4,63 121.2,65.2 121.8,65.8 124,63.6    126.1,65.8 126.7,65.2 124.6,63  "/>
	<polygon class="st1" points="157,60.9 156.4,60.3 154.2,62.4 152.1,60.2 151.4,60.9 153.6,63 151.4,65.2 152.1,65.8 154.2,63.6    156.4,65.8 157,65.2 154.8,63  "/>
	<polygon class="st1" points="187.2,60.9 186.6,60.3 184.5,62.4 182.3,60.2 181.7,60.9 183.9,63 181.7,65.2 182.3,65.8 184.5,63.6    186.6,65.8 187.2,65.2 185.1,63  "/>
	<polygon class="st1" points="217.5,60.9 216.9,60.3 214.7,62.4 212.6,60.2 211.9,60.9 214.1,63 211.9,65.2 212.6,65.8 214.7,63.6    216.9,65.8 217.5,65.2 215.3,63  "/>
	<polygon class="st1" points="247.7,60.9 247.1,60.3 245,62.4 242.8,60.2 242.2,60.9 244.4,63 242.2,65.2 242.8,65.8 245,63.6    247.1,65.8 247.7,65.2 245.6,63  "/>
	<polygon class="st1" points="278,60.9 277.4,60.3 275.2,62.4 273,60.2 272.4,60.9 274.6,63 272.4,65.2 273,65.8 275.2,63.6    277.4,65.8 278,65.2 275.8,63  "/>
	<polygon class="st0" points="-145.5,91 -146.1,90.4 -148.3,92.5 -150.4,90.4 -151,91 -148.9,93.1 -151,95.3 -150.4,95.9    -148.3,93.7 -146.1,95.9 -145.5,95.3 -147.7,93.1  "/>
	<polygon class="st0" points="-115.3,91 -115.9,90.4 -118,92.5 -120.2,90.4 -120.8,91 -118.6,93.1 -120.8,95.3 -120.2,95.9    -118,93.7 -115.9,95.9 -115.3,95.3 -117.4,93.1  "/>
	<polygon class="st0" points="-85,91 -85.6,90.4 -87.8,92.5 -89.9,90.4 -90.6,91 -88.4,93.1 -90.6,95.3 -89.9,95.9 -87.8,93.7    -85.6,95.9 -85,95.3 -87.2,93.1  "/>
	<polygon class="st0" points="-54.8,91 -55.4,90.4 -57.5,92.5 -59.7,90.4 -60.3,91 -58.1,93.1 -60.3,95.3 -59.7,95.9 -57.5,93.7    -55.4,95.9 -54.8,95.3 -56.9,93.1  "/>
	<polygon class="st0" points="-24.5,91 -25.1,90.4 -27.3,92.5 -29.4,90.4 -30.1,91 -27.9,93.1 -30.1,95.3 -29.4,95.9 -27.3,93.7    -25.1,95.9 -24.5,95.3 -26.7,93.1  "/>
	<polygon class="st1" points="5.7,91 5.1,90.4 3,92.5 0.8,90.4 0.2,91 2.4,93.1 0.2,95.3 0.8,95.9 3,93.7 5.1,95.9 5.7,95.3    3.6,93.1  "/>
	<polygon class="st1" points="36,91 35.4,90.4 33.2,92.5 31.1,90.4 30.4,91 32.6,93.1 30.4,95.3 31.1,95.9 33.2,93.7 35.4,95.9    36,95.3 33.8,93.1  "/>
	<polygon class="st1" points="66.2,91 65.6,90.4 63.5,92.5 61.3,90.4 60.7,91 62.9,93.1 60.7,95.3 61.3,95.9 63.5,93.7 65.6,95.9    66.2,95.3 64.1,93.1  "/>
	<polygon class="st1" points="96.5,91 95.9,90.4 93.7,92.5 91.6,90.4 90.9,91 93.1,93.1 90.9,95.3 91.6,95.9 93.7,93.7 95.9,95.9    96.5,95.3 94.3,93.1  "/>
	<polygon class="st1" points="126.7,91 126.1,90.4 124,92.5 121.8,90.4 121.2,91 123.4,93.1 121.2,95.3 121.8,95.9 124,93.7    126.1,95.9 126.7,95.3 124.6,93.1  "/>
	<polygon class="st1" points="157,91 156.4,90.4 154.2,92.5 152.1,90.4 151.4,91 153.6,93.1 151.4,95.3 152.1,95.9 154.2,93.7    156.4,95.9 157,95.3 154.8,93.1  "/>
	<polygon class="st1" points="187.2,91 186.6,90.4 184.5,92.5 182.3,90.4 181.7,91 183.9,93.1 181.7,95.3 182.3,95.9 184.5,93.7    186.6,95.9 187.2,95.3 185.1,93.1  "/>
	<polygon class="st1" points="217.5,91 216.9,90.4 214.7,92.5 212.6,90.4 211.9,91 214.1,93.1 211.9,95.3 212.6,95.9 214.7,93.7    216.9,95.9 217.5,95.3 215.3,93.1  "/>
	<polygon class="st1" points="247.7,91 247.1,90.4 245,92.5 242.8,90.4 242.2,91 244.4,93.1 242.2,95.3 242.8,95.9 245,93.7    247.1,95.9 247.7,95.3 245.6,93.1  "/>
	<polygon class="st1" points="278,91 277.4,90.4 275.2,92.5 273,90.4 272.4,91 274.6,93.1 272.4,95.3 273,95.9 275.2,93.7    277.4,95.9 278,95.3 275.8,93.1  "/>
	<polygon class="st0" points="-145.5,121.8 -146.1,121.2 -148.3,123.4 -150.4,121.2 -151,121.8 -148.9,124 -151,126.1 -150.4,126.7    -148.3,124.6 -146.1,126.7 -145.5,126.1 -147.7,124  "/>
	<polygon class="st0" points="-115.3,121.8 -115.9,121.2 -118,123.4 -120.2,121.2 -120.8,121.8 -118.6,124 -120.8,126.1    -120.2,126.7 -118,124.6 -115.9,126.7 -115.3,126.1 -117.4,124  "/>
	<polygon class="st0" points="-85,121.8 -85.6,121.2 -87.8,123.4 -89.9,121.2 -90.6,121.8 -88.4,124 -90.6,126.1 -89.9,126.7    -87.8,124.6 -85.6,126.7 -85,126.1 -87.2,124  "/>
	<polygon class="st0" points="-54.8,121.8 -55.4,121.2 -57.5,123.4 -59.7,121.2 -60.3,121.8 -58.1,124 -60.3,126.1 -59.7,126.7    -57.5,124.6 -55.4,126.7 -54.8,126.1 -56.9,124  "/>
	<polygon class="st0" points="-24.5,121.8 -25.1,121.2 -27.3,123.4 -29.4,121.2 -30.1,121.8 -27.9,124 -30.1,126.1 -29.4,126.7    -27.3,124.6 -25.1,126.7 -24.5,126.1 -26.7,124  "/>
	<polygon class="st1" points="5.7,121.8 5.1,121.2 3,123.4 0.8,121.2 0.2,121.8 2.4,124 0.2,126.1 0.8,126.7 3,124.6 5.1,126.7    5.7,126.1 3.6,124  "/>
	<polygon class="st1" points="36,121.8 35.4,121.2 33.2,123.4 31.1,121.2 30.4,121.8 32.6,124 30.4,126.1 31.1,126.7 33.2,124.6    35.4,126.7 36,126.1 33.8,124  "/>
	<polygon class="st1" points="66.2,121.8 65.6,121.2 63.5,123.4 61.3,121.2 60.7,121.8 62.9,124 60.7,126.1 61.3,126.7 63.5,124.6    65.6,126.7 66.2,126.1 64.1,124  "/>
	<polygon class="st1" points="96.5,121.8 95.9,121.2 93.7,123.4 91.6,121.2 90.9,121.8 93.1,124 90.9,126.1 91.6,126.7 93.7,124.6    95.9,126.7 96.5,126.1 94.3,124  "/>
	<polygon class="st1" points="126.7,121.8 126.1,121.2 124,123.4 121.8,121.2 121.2,121.8 123.4,124 121.2,126.1 121.8,126.7    124,124.6 126.1,126.7 126.7,126.1 124.6,124  "/>
	<polygon class="st1" points="157,121.8 156.4,121.2 154.2,123.4 152.1,121.2 151.4,121.8 153.6,124 151.4,126.1 152.1,126.7    154.2,124.6 156.4,126.7 157,126.1 154.8,124  "/>
	<polygon class="st1" points="187.2,121.8 186.6,121.2 184.5,123.4 182.3,121.2 181.7,121.8 183.9,124 181.7,126.1 182.3,126.7    184.5,124.6 186.6,126.7 187.2,126.1 185.1,124  "/>
	<polygon class="st1" points="217.5,121.8 216.9,121.2 214.7,123.4 212.6,121.2 211.9,121.8 214.1,124 211.9,126.1 212.6,126.7    214.7,124.6 216.9,126.7 217.5,126.1 215.3,124  "/>
	<polygon class="st1" points="247.7,121.8 247.1,121.2 245,123.4 242.8,121.2 242.2,121.8 244.4,124 242.2,126.1 242.8,126.7    245,124.6 247.1,126.7 247.7,126.1 245.6,124  "/>
	<polygon class="st1" points="278,121.8 277.4,121.2 275.2,123.4 273,121.2 272.4,121.8 274.6,124 272.4,126.1 273,126.7    275.2,124.6 277.4,126.7 278,126.1 275.8,124  "/>
</g>
</svg>