<svg xmlns="http://www.w3.org/2000/svg" width="40" height="40" viewBox="0 0 40 40" fill="none">
<g opacity="0.3">
<rect width="40" height="40" rx="4" fill="white"/>
<g clip-path="url(#clip0_1362_5125)">
<path d="M22.1214 22.1214C20.3929 23.905 20.2671 26.1286 20.1179 31C24.6593 31 27.7943 30.9843 29.4129 29.4129C30.9843 27.7943 31 24.51 31 20.1179C26.1286 20.275 23.905 20.3929 22.1214 22.1214ZM9 20.1179C9 24.51 9.01571 27.7943 10.5871 29.4129C12.2057 30.9843 15.3407 31 19.8821 31C19.725 26.1286 19.6071 23.905 17.8786 22.1214C16.095 20.3929 13.8714 20.2671 9 20.1179ZM19.8821 9C15.3486 9 12.2057 9.01571 10.5871 10.5871C9.01571 12.2057 9 15.49 9 19.8821C13.8714 19.725 16.095 19.6071 17.8786 17.8786C19.6071 16.095 19.7329 13.8714 19.8821 9ZM22.1214 17.8786C20.3929 16.095 20.2671 13.8714 20.1179 9C24.6593 9 27.7943 9.01571 29.4129 10.5871C30.9843 12.2057 31 15.49 31 19.8821C26.1286 19.725 23.905 19.6071 22.1214 17.8786Z" fill="#2D3134"/>
<path d="M31 20.1179V19.8821C26.1286 19.725 23.905 19.6071 22.1214 17.8786C20.3929 16.095 20.2671 13.8714 20.1179 9H19.8821C19.725 13.8714 19.6071 16.095 17.8786 17.8786C16.095 19.6071 13.8714 19.7329 9 19.8821V20.1179C13.8714 20.275 16.095 20.3929 17.8786 22.1214C19.6071 23.905 19.7329 26.1286 19.8821 31H20.1179C20.275 26.1286 20.3929 23.905 22.1214 22.1214C23.905 20.3929 26.1286 20.2671 31 20.1179Z" fill="white"/>
</g>
</g>
<defs>
<clipPath id="clip0_1362_5125">
<rect width="22" height="22" fill="white" transform="translate(9 9)"/>
</clipPath>
</defs>
</svg>