<svg xmlns="http://www.w3.org/2000/svg" xmlns:xlink="http://www.w3.org/1999/xlink" version="1.1" id="Слой_1" x="0px" y="0px" viewBox="0 0 82.5 81.8" style="enable-background:new 0 0 82.5 81.8;" xml:space="preserve">
<style type="text/css">
	.st0{clip-path:url(#SVGID_2_);fill:#BC0230;}
	.st1{clip-path:url(#SVGID_2_);fill:none;stroke:#BC0230;stroke-width:0.5;stroke-miterlimit:10;}
</style>
<g>
	<defs>
		<rect id="SVGID_1_" y="0" width="82.5" height="81.8"/>
	</defs>
	<clipPath id="SVGID_2_">
		<use xlink:href="#SVGID_1_" style="overflow:visible;"/>
	</clipPath>
	<path class="st0" d="M50.4,1C48.7,0,46.7,0,45,1c-0.1,0.1-0.2,0.1-0.2,0.2L20.8,21.5H2c-1,0-1.8,0.8-1.8,1.8v33.6   c0,0.5,0.2,0.9,0.5,1.3c0.3,0.3,0.8,0.5,1.3,0.5l18.7,0l23.9,22c0.1,0.1,0.2,0.1,0.3,0.2c0.9,0.5,1.8,0.8,2.8,0.8   c0.9,0,1.8-0.2,2.7-0.7c1.8-1,2.8-2.8,2.8-4.9V5.8C53.2,3.8,52.2,2,50.4,1 M49.7,75.9c0,0.8-0.4,1.4-1,1.8c-0.3,0.1-1,0.4-1.8,0   L23.2,56v-8c0-1-0.8-1.8-1.8-1.8c-1,0-1.8,0.8-1.8,1.8V55L3.8,55V25h15.9v7.1c0,1,0.8,1.8,1.8,1.8c1,0,1.8-0.8,1.8-1.8v-8L46.9,4   c0.8-0.4,1.5-0.1,1.8,0c0.6,0.4,1,1,1,1.8V75.9z"/>
	<path class="st1" d="M50.4,1C48.7,0,46.7,0,45,1c-0.1,0.1-0.2,0.1-0.2,0.2L20.8,21.5H2c-1,0-1.8,0.8-1.8,1.8v33.6   c0,0.5,0.2,0.9,0.5,1.3c0.3,0.3,0.8,0.5,1.3,0.5l18.7,0l23.9,22c0.1,0.1,0.2,0.1,0.3,0.2c0.9,0.5,1.8,0.8,2.8,0.8   c0.9,0,1.8-0.2,2.7-0.7c1.8-1,2.8-2.8,2.8-4.9V5.8C53.2,3.8,52.2,2,50.4,1z M49.7,75.9c0,0.8-0.4,1.4-1,1.8c-0.3,0.1-1,0.4-1.8,0   L23.2,56v-8c0-1-0.8-1.8-1.8-1.8c-1,0-1.8,0.8-1.8,1.8V55L3.8,55V25h15.9v7.1c0,1,0.8,1.8,1.8,1.8c1,0,1.8-0.8,1.8-1.8v-8L46.9,4   c0.8-0.4,1.5-0.1,1.8,0c0.6,0.4,1,1,1,1.8V75.9z"/>
	<path class="st0" d="M65,17.1c-0.9-0.3-1.9,0.3-2.2,1.2c-0.3,0.9,0.3,1.9,1.2,2.2C72.7,23,78.7,31,78.7,40c0,9-6,17-14.7,19.5   c-0.9,0.3-1.5,1.2-1.2,2.2c0.2,0.8,0.9,1.3,1.7,1.3c0.2,0,0.3,0,0.5-0.1C75.2,60,82.3,50.5,82.3,40C82.3,29.4,75.2,20,65,17.1"/>
	<path class="st1" d="M65,17.1c-0.9-0.3-1.9,0.3-2.2,1.2c-0.3,0.9,0.3,1.9,1.2,2.2C72.7,23,78.7,31,78.7,40c0,9-6,17-14.7,19.5   c-0.9,0.3-1.5,1.2-1.2,2.2c0.2,0.8,0.9,1.3,1.7,1.3c0.2,0,0.3,0,0.5-0.1C75.2,60,82.3,50.5,82.3,40C82.3,29.4,75.2,20,65,17.1z"/>
</g>
</svg>