<svg xmlns="http://www.w3.org/2000/svg" xmlns:xlink="http://www.w3.org/1999/xlink" version="1.1" id="Слой_1" x="0px" y="0px" viewBox="0 0 445.4 387" style="enable-background:new 0 0 445.4 387;" xml:space="preserve">
<style type="text/css">
	.st0{clip-path:url(#SVGID_2_);fill:none;stroke:#008D00;stroke-width:22;stroke-linecap:round;stroke-miterlimit:10;}
	.st1{clip-path:url(#SVGID_2_);fill:#008D00;}
	
		.st2{clip-path:url(#SVGID_2_);fill:none;stroke:#008D00;stroke-width:7.966;stroke-linecap:round;stroke-linejoin:round;stroke-miterlimit:10;}
	
		.st3{clip-path:url(#SVGID_2_);fill:none;stroke:#008D00;stroke-width:15;stroke-linecap:round;stroke-linejoin:round;stroke-miterlimit:10;}
	
		.st4{clip-path:url(#SVGID_2_);fill:none;stroke:#008D00;stroke-width:15.932;stroke-linecap:round;stroke-linejoin:round;stroke-miterlimit:10;}
</style>
<g>
	<defs>
		<rect id="SVGID_1_" width="445.4" height="387"/>
	</defs>
	<clipPath id="SVGID_2_">
		<use xlink:href="#SVGID_1_" style="overflow:visible;"/>
	</clipPath>
	<path class="st0" d="M11,376h177.8c4.7,0,8.5-3.8,8.5-8.5v-136c0-4.7,3.3-10.4,7.3-12.8l23.3-13.8c4-2.4,4.7-7.1,1.5-10.5   L76.2,33.3c-3.2-3.4-8.4-3.3-11.6,0.1L11,91.9"/>
	<path class="st1" d="M297.1,340.5c36.8,0.3,67-29.5,67.3-66.3c0-4.1-3.3-7.4-7.4-7.5c-4.1,0-7.4,3.3-7.5,7.4   c-0.2,28.6-23.7,51.8-52.3,51.5c-28.6-0.2-51.8-23.7-51.5-52.3c0.2-28.6,23.7-51.8,52.3-51.6l139.9,1c4.1,0,7.4-3.3,7.5-7.4   c0-4.1-3.3-7.4-7.4-7.5l-139.9-1c-36.8-0.3-67,29.5-67.3,66.3C230.6,310,260.3,340.2,297.1,340.5"/>
	<path class="st2" d="M344.9,127.6l-67-0.5c-15.2-0.1-27.7,12.2-27.8,27.4c-0.1,15.2,12.2,27.7,27.4,27.8   c15.2,0.1,27.7-12.2,27.8-27.4c0-2.2-1.7-4-3.9-4c-2.2,0-4,1.7-4,3.9c-0.1,10.9-9,19.6-19.9,19.6c-10.9-0.1-19.6-9-19.6-19.9   c0.1-10.9,9-19.6,19.9-19.6l67,0.5c2.2,0,4-1.7,4-3.9C348.8,129.4,347,127.6,344.9,127.6z"/>
	<path class="st1" d="M212.6,14.8C233,15,249.5,31.7,249.4,52c0,4,3.1,7.4,7,7.6c4.2,0.2,7.8-3.2,7.8-7.4   c0.2-30-25.1-54.3-55.6-52.2c-25.4,1.7-46.1,22.1-48.1,47.5C158,78,182,103.7,211.9,103.9l98.5,0.7c3.8,0,7.3-2.7,7.7-6.5   c0.6-4.5-2.9-8.3-7.3-8.4l-98-0.7c-20.8-0.2-38.1-17.3-37.6-38C175.7,30.9,192.3,14.7,212.6,14.8"/>
	<line class="st3" x1="246.8" y1="363.6" x2="296" y2="363.9"/>
	<line class="st4" x1="331.9" y1="176.3" x2="381.1" y2="176.7"/>
</g>
</svg>