<svg xmlns="http://www.w3.org/2000/svg" xmlns:xlink="http://www.w3.org/1999/xlink" version="1.1" id="Слой_1" x="0px" y="0px" viewBox="0 0 86.8 93.9" style="enable-background:new 0 0 86.8 93.9;" xml:space="preserve">
<style type="text/css">
	.st0{fill:#008D00;}
</style>
<g>
	<g>
		<g>
			<path class="st0" d="M17.6,0c-6,0-10.9,4.9-10.9,10.9v52.4c-4.6,3.8-7,9.8-6.1,15.7c1.3,9.4,10,16,19.4,14.6     c8.5-1.2,14.8-8.5,14.8-17.1c0-5.1-2.3-10-6.3-13.2V10.9C28.5,4.9,23.6,0,17.6,0L17.6,0z M31.7,76.6c0,7.8-6.3,14.1-14.1,14.1     c-7.8,0-14.1-6.3-14.1-14.1c0-4.4,2.1-8.6,5.6-11.3c0.4-0.3,0.6-0.8,0.6-1.3v-4.7h3.1v-3.1H9.8v-4.7h3.1v-3.1H9.8v-4.7h3.1v-3.1     H9.8V36h3.1v-3.1H9.8v-4.7h3.1V25H9.8v-4.7h3.1v-3.1H9.8v-6.3c0-4.3,3.5-7.8,7.8-7.8c4.3,0,7.8,3.5,7.8,7.8v53.2     c0,0.5,0.2,1,0.6,1.3C29.6,68,31.7,72.2,31.7,76.6L31.7,76.6z M31.7,76.6"/>
		</g>
		<path class="st0" d="M19.2,69V14.1H16V69c-4.2,0.9-7,5-6.1,9.2c0.9,4.2,5,7,9.2,6.1c4.2-0.9,7-5,6.1-9.2    C24.6,72,22.2,69.6,19.2,69L19.2,69z M17.6,81.3c-2.6,0-4.7-2.1-4.7-4.7c0-2.6,2.1-4.7,4.7-4.7s4.7,2.1,4.7,4.7    C22.3,79.2,20.2,81.3,17.6,81.3L17.6,81.3z M17.6,81.3"/>
	</g>
</g>
<g>
	<path class="st0" d="M51.9,31.3c0,0.4-0.4,0.8-0.8,0.8h-8.2c-0.4,0-0.8-0.4-0.8-0.8v-0.5c0-0.4,0.2-0.9,0.8-1.3   c0.8-0.8,1.5-1.4,2-2c0.6-0.6,1.1-1.3,1.8-2.1c1.3-1.6,2-3.1,2-4.4c0-1.3-0.7-2-2-2c-0.8,0-1.5,0.4-2.1,1.3   c-0.2,0.3-0.4,0.4-0.8,0.4c-0.1,0-0.3,0-0.4-0.1l-0.6-0.3c-0.3-0.2-0.4-0.4-0.4-0.7c0-0.1,0-0.2,0.1-0.3c1-1.9,2.3-2.8,4.5-2.8   c1.4,0,2.5,0.4,3.2,1.2c0.8,0.8,1.1,1.7,1.1,2.8c0,1.6-0.8,3.5-1.7,4.8c-0.4,0.6-1,1.3-1.6,2c-0.6,0.7-1.1,1.2-1.5,1.5   c-0.4,0.3-0.7,0.6-1.1,0.9H51c0.4,0,0.8,0.4,0.8,0.8V31.3z"/>
	<path class="st0" d="M63.4,31.3c0,0.4-0.4,0.8-0.8,0.8h-8.2c-0.4,0-0.8-0.4-0.8-0.8v-0.5c0-0.4,0.2-0.9,0.8-1.3   c0.8-0.8,1.5-1.4,2-2c0.6-0.6,1.1-1.3,1.8-2.1c1.3-1.6,2-3.1,2-4.4c0-1.3-0.7-2-2-2c-0.8,0-1.5,0.4-2.1,1.3   c-0.2,0.3-0.4,0.4-0.8,0.4c-0.1,0-0.3,0-0.4-0.1l-0.6-0.3c-0.3-0.2-0.4-0.4-0.4-0.7c0-0.1,0-0.2,0.1-0.3c1-1.9,2.3-2.8,4.5-2.8   c1.4,0,2.5,0.4,3.2,1.2c0.8,0.8,1.1,1.7,1.1,2.8c0,1.6-0.8,3.5-1.7,4.8c-0.4,0.6-1,1.3-1.6,2c-0.6,0.7-1.1,1.2-1.5,1.5   c-0.4,0.3-0.7,0.6-1.1,0.9h5.6c0.4,0,0.8,0.4,0.8,0.8V31.3z"/>
	<path class="st0" d="M68.6,16.6c1.1,0,2,0.4,2.7,1.1c0.6,0.8,0.9,1.7,0.9,2.8c0,2.3-1.3,4-3.6,4c-2.3,0-3.6-1.6-3.6-4   c0-1.1,0.3-2.1,0.9-2.8C66.6,16.9,67.5,16.6,68.6,16.6z M69.9,20.5c0-1.5-0.4-2.1-1.2-2.1c-0.8,0-1.3,0.7-1.3,2.1   c0,1.4,0.4,2.1,1.3,2.1S69.9,22,69.9,20.5z"/>
	<path class="st0" d="M81.4,18.9c-1.5,0-2.7,0.5-3.6,1.5c-0.9,1-1.4,2.3-1.4,4c0,1.6,0.5,2.9,1.5,3.9c1,1,2.3,1.5,3.8,1.5   c0.9,0,1.8-0.3,2.8-0.8c0.2-0.1,0.4-0.1,0.5-0.1c0.3,0,0.6,0.1,0.7,0.4l0.4,0.6c0.1,0.2,0.2,0.3,0.2,0.5c0,0.3-0.1,0.5-0.3,0.6   c-1.3,0.9-2.8,1.3-4.5,1.3c-2.4,0-4.3-0.7-5.8-2.2c-1.5-1.5-2.2-3.4-2.2-5.8c0-2.3,0.7-4.2,2.1-5.7c1.4-1.5,3.3-2.3,5.8-2.3   c1.4,0,2.7,0.4,4,1.1c0.3,0.2,0.4,0.4,0.4,0.6c0,0.2,0,0.3-0.1,0.4l-0.5,0.8c-0.2,0.3-0.4,0.4-0.7,0.4c-0.2,0-0.3,0-0.5-0.1   C83.1,19.2,82.2,18.9,81.4,18.9z"/>
</g>
</svg>