<svg xmlns="http://www.w3.org/2000/svg" xmlns:xlink="http://www.w3.org/1999/xlink" version="1.1" id="Слой_1" x="0px" y="0px" viewBox="0 0 82 67.7" style="enable-background:new 0 0 82 67.7;" xml:space="preserve">
<style type="text/css">
	.st0{clip-path:url(#SVGID_2_);fill:#008D00;}
</style>
<g>
	<defs>
		<rect id="SVGID_1_" y="0" width="82" height="67.7"/>
	</defs>
	<clipPath id="SVGID_2_">
		<use xlink:href="#SVGID_1_" style="overflow:visible;"/>
	</clipPath>
	<path class="st0" d="M66,3.6c-8.8,0-16,7.2-16,16c0,1,0.8,1.8,1.8,1.8s1.8-0.8,1.8-1.8c0-6.9,5.6-12.5,12.5-12.5   s12.5,5.6,12.5,12.5c0,6.9-5.6,12.5-12.5,12.5H1.8c-1,0-1.8,0.8-1.8,1.8s0.8,1.8,1.8,1.8H66c8.8,0,16-7.2,16-16   C82,10.8,74.8,3.6,66,3.6"/>
	<path class="st0" d="M1.8,25h30.3c6.9,0,12.5-5.6,12.5-12.5S39,0,32.1,0S19.6,5.6,19.6,12.5c0,1,0.8,1.8,1.8,1.8   c1,0,1.8-0.8,1.8-1.8c0-4.9,4-8.9,8.9-8.9c4.9,0,8.9,4,8.9,8.9s-4,8.9-8.9,8.9H1.8c-1,0-1.8,0.8-1.8,1.8C0,24.2,0.8,25,1.8,25"/>
	<path class="st0" d="M62.4,64.2c-4.9,0-8.9-4-8.9-8.9c0-1-0.8-1.8-1.8-1.8s-1.8,0.8-1.8,1.8c0,6.9,5.6,12.5,12.5,12.5   c6.9,0,12.5-5.6,12.5-12.5s-5.6-12.5-12.5-12.5H1.8c-1,0-1.8,0.8-1.8,1.8c0,1,0.8,1.8,1.8,1.8h60.6c4.9,0,8.9,4,8.9,8.9   S67.3,64.2,62.4,64.2"/>
</g>
</svg>