<svg xmlns="http://www.w3.org/2000/svg" fill="none" height="42" viewBox="0 0 42 42" width="42"><g stroke="#008D00" stroke-linecap="round" stroke-linejoin="round" stroke-width="2"><path d="m17.6657 34.3388h-8.33684c-1.84171 0-3.33472-1.493-3.33472-3.3347v-20.0083c0-1.84172 1.49301-3.33473 3.33472-3.33473h23.34304c1.8417 0 3.3347 1.49301 3.3347 3.33473v1.3347"/><path d="m37 34-4.6359-4.636m-4.2423-4.242-4.2439-4.244m4.2439 0-4.2439 4.244m2.122 6.878c4.9705 0 8.9999-4.0295 8.9999-9 0-4.9706-4.0294-9-8.9999-9s-8.9999 4.0294-8.9999 9c0 4.9705 4.0294 9 8.9999 9z"/></g></svg>