<svg width="64" height="64" viewBox="0 0 64 64" fill="none" xmlns="http://www.w3.org/2000/svg">
    <path d="M7.30273 7.32059L7 7.62321V32.009V56.3947L7.30273 56.6974L7.60547 57H32H56.3945L56.6973 56.6974L57 56.3947V42.9035C57 30.5935 56.9902 29.3927 56.8438 29.1877C56.6094 28.8656 56.1211 28.6899 55.4375 28.6899H54.8516V18.1956V7.71107L54.5488 7.35964C54.2754 7.05701 54.1875 7.01796 53.7676 7.01796C53.377 7.01796 53.2305 7.06677 52.9766 7.30106L52.6543 7.58416L52.625 9.44873L52.5957 11.3133H50.4473H48.3086V9.46825V7.62321L48.0059 7.32059C47.7617 7.06677 47.6348 7.01796 47.2441 7.01796C46.9805 7.01796 46.6973 7.0863 46.5605 7.17416C46.1406 7.47678 46.0625 7.85751 46.0625 9.65373V11.3133H43.9629H41.8633V9.72207C41.8633 8.85324 41.8145 7.97465 41.7656 7.77941C41.5508 7.0082 40.4961 6.73486 39.9297 7.30106C39.5586 7.68179 39.5195 7.90631 39.5195 9.76112V11.3133H37.4199H35.3203V9.65373C35.3203 7.85751 35.2422 7.47678 34.8223 7.17416C34.6172 7.02773 33.416 7.01796 21.1016 7.01796H7.60547L7.30273 7.32059ZM33.0742 19.7673V30.2713L33.4062 30.6032L33.7383 30.9351H44.2461H54.7539V38.5008V46.0664H32H9.24609V27.6648V9.26325H21.1602H33.0742V19.7673ZM39.5195 16.7801V20.0016H37.4199H35.3203V16.7801V13.5586H37.4199H39.5195V16.7801ZM46.0625 16.7801V20.0016H43.9629H41.8633V16.7801V13.5586H43.9629H46.0625V16.7801ZM52.6055 16.7801V20.0016H50.457H48.3086V16.7801V13.5586H50.457H52.6055V16.7801ZM39.5195 25.4684V28.6899H37.4199H35.3203V25.4684V22.2469H37.4199H39.5195V25.4684ZM46.0625 25.4684V28.6899H43.9629H41.8633V25.4684V22.2469H43.9629H46.0625V25.4684ZM52.6055 25.4684V28.6899H50.457H48.3086V25.4684V22.2469H50.457H52.6055V25.4684ZM54.7539 51.5332V54.7547H32H9.24609V51.5332V48.3117H32H54.7539V51.5332Z" fill="white"></path>
</svg>