<svg width="64" height="64" viewBox="0 0 64 64" fill="none"
xmlns="http://www.w3.org/2000/svg">
<path d="M16.3203 17.7598V29.2798" stroke="white" stroke-width="2.5"
    stroke-linecap="round"></path>
<path d="M16.3203 17.7598V29.2798" stroke="white" stroke-width="2.5"
    stroke-linecap="round"></path>
<path d="M47.041 17.7598V29.2798" stroke="white" stroke-width="2.5"
    stroke-linecap="round"></path>
<path d="M47.041 17.7598V29.2798" stroke="white" stroke-width="2.5"
    stroke-linecap="round"></path>
<path
    d="M41.2814 15.2008C50.2414 17.4408 57.9214 28.9608 57.9214 38.2408V45.9208H5.44141V38.2408C5.44141 28.9608 13.1214 17.4408 22.0814 15.2008V12.9608C22.0814 11.3608 23.8734 8.80078 27.2014 8.80078H36.8014C40.0014 8.80078 41.2814 11.3608 41.2814 12.9608V15.2008Z"
    stroke="white" stroke-width="2.5"></path>
<path
    d="M41.2814 15.2008C50.2414 17.4408 57.9214 28.9608 57.9214 38.2408V45.9208H5.44141V38.2408C5.44141 28.9608 13.1214 17.4408 22.0814 15.2008V12.9608C22.0814 11.3608 23.8734 8.80078 27.2014 8.80078H36.8014C40.0014 8.80078 41.2814 11.3608 41.2814 12.9608V15.2008Z"
    stroke="white" stroke-width="2.5"></path>
<path
    d="M41.2801 33.1208V12.9608C41.2801 11.3608 40.0001 8.80078 36.8001 8.80078C33.6001 8.80078 30.0801 8.80078 27.2001 8.80078C23.8721 8.80078 22.0801 11.3608 22.0801 12.9608V33.1208"
    stroke="white" stroke-width="2.5" stroke-linecap="round"></path>
<path
    d="M41.2801 33.1208V12.9608C41.2801 11.3608 40.0001 8.80078 36.8001 8.80078C33.6001 8.80078 30.0801 8.80078 27.2001 8.80078C23.8721 8.80078 22.0801 11.3608 22.0801 12.9608V33.1208"
    stroke="white" stroke-width="2.5" stroke-linecap="round"></path>
<rect x="1.25" y="-1.25" width="58.3" height="7.74" rx="3.87"
    transform="matrix(1 0 0 -1 1.59961 53.0195)" stroke="white" stroke-width="2.5">
</rect>
<rect x="1.25" y="-1.25" width="58.3" height="7.74" rx="3.87"
    transform="matrix(1 0 0 -1 1.59961 53.0195)" stroke="white" stroke-width="2.5">
</rect>
</svg>