<svg width="50" height="50" viewBox="0 0 50 50" fill="none" xmlns="http://www.w3.org/2000/svg">
    <g clip-path="url(#clip0_422_5648)">
        <path d="M0.976562 0.976562C0.78125 1.17188 0.78125 1.29883 0.78125 18.9941V36.8164H1.5625H2.34375L2.36328 31.1133L2.39258 25.4102L2.89062 26.0156C3.78906 27.1094 5.11719 27.9785 6.74805 28.5254C7.54883 28.7988 7.83203 28.8477 8.99414 28.8867C9.99023 28.916 10.5176 28.8867 11.1133 28.7695C12.9492 28.3984 14.7168 27.373 15.8691 26.0059L16.4062 25.3809V31.0938V36.8164H17.1875H17.9688V31.0742L17.9785 25.3418L18.1836 25.6348C18.5547 26.1621 19.5605 27.0801 20.293 27.5488C21.1035 28.0762 22.2852 28.5645 23.291 28.7793C24.2578 28.9844 26.4648 28.9062 27.3926 28.623C28.9453 28.1641 30.5859 27.1191 31.4844 26.0156L31.9824 25.4102L32.0117 31.1133L32.0312 36.8164H32.8125H33.5938V31.0742L33.6035 25.3418L33.8086 25.6348C34.1797 26.1621 35.1855 27.0801 35.918 27.5488C36.7285 28.0762 37.9102 28.5645 38.916 28.7793C39.8828 28.9844 42.0898 28.9062 43.0078 28.623C44.7363 28.1055 46.4062 26.9824 47.3926 25.6836L47.6562 25.3418V31.0742V36.8164H48.4375H49.2188V18.9941C49.2188 1.29883 49.2188 1.17188 49.0234 0.976562C48.8281 0.78125 48.7012 0.78125 25 0.78125C1.29883 0.78125 1.17188 0.78125 0.976562 0.976562ZM16.4062 11.1523C16.4062 16.0059 16.3672 20.3613 16.3184 20.8496C16.1523 22.5391 15.5078 23.9551 14.375 25.1367C11.6113 27.998 7.07031 27.9785 4.33594 25.0879C3.22266 23.9062 2.59766 22.5098 2.43164 20.8496C2.38281 20.3711 2.34375 16.0059 2.34375 11.1523V2.34375H9.375H16.4062V11.1523ZM32.0312 11.1523C32.0312 16.0059 31.9922 20.3613 31.9434 20.8496C31.7773 22.5391 31.1328 23.9551 30 25.1367C27.2363 27.998 22.6953 27.9785 19.9609 25.0879C18.8477 23.9062 18.2227 22.5098 18.0566 20.8496C18.0078 20.3711 17.9688 16.0059 17.9688 11.1523V2.34375H25H32.0312V11.1523ZM47.6562 11.123C47.6562 16.5137 47.6172 20.2832 47.5586 20.8984C47.373 22.6465 46.748 23.9648 45.5176 25.2051C43.9648 26.7578 42.0508 27.4414 39.8633 27.2266C37.2949 26.9824 34.9609 25.1074 34.043 22.5684C33.6328 21.4258 33.5938 20.4785 33.5938 11.123V2.34375H40.625H47.6562V11.123Z" fill="white"></path>
        <path d="M0.976562 14.1602C0.78125 14.3555 0.78125 14.4824 0.78125 32.1777V50H1.5625H2.34375L2.36328 44.2969L2.39258 38.5938L2.89062 39.1992C3.78906 40.293 5.11719 41.1621 6.74805 41.709C7.54883 41.9824 7.83203 42.0312 8.99414 42.0703C9.99023 42.0996 10.5176 42.0703 11.1133 41.9531C12.9492 41.582 14.7168 40.5566 15.8691 39.1895L16.4062 38.5645V44.2773V50H17.1875H17.9688V44.2578L17.9785 38.5254L18.1836 38.8184C18.5547 39.3457 19.5605 40.2637 20.293 40.7324C21.1035 41.2598 22.2852 41.748 23.291 41.9629C24.2578 42.168 26.4648 42.0898 27.3926 41.8066C28.9453 41.3477 30.5859 40.3027 31.4844 39.1992L31.9824 38.5938L32.0117 44.2969L32.0312 50H32.8125H33.5938V44.2578L33.6035 38.5254L33.8086 38.8184C34.1797 39.3457 35.1855 40.2637 35.918 40.7324C36.7285 41.2598 37.9102 41.748 38.916 41.9629C39.8828 42.168 42.0898 42.0898 43.0078 41.8066C44.7363 41.2891 46.4062 40.166 47.3926 38.8672L47.6562 38.5254V44.2578V50H48.4375H49.2188V32.1777C49.2188 14.4824 49.2188 14.3555 49.0234 14.1602C48.8281 13.9648 48.7012 13.9648 25 13.9648C1.29883 13.9648 1.17188 13.9648 0.976562 14.1602ZM16.4062 24.3359C16.4062 29.1895 16.3672 33.5449 16.3184 34.0332C16.1523 35.7227 15.5078 37.1387 14.375 38.3203C11.6113 41.1816 7.07031 41.1621 4.33594 38.2715C3.22266 37.0898 2.59766 35.6934 2.43164 34.0332C2.38281 33.5547 2.34375 29.1895 2.34375 24.3359V15.5273H9.375H16.4062V24.3359ZM32.0312 24.3359C32.0312 29.1895 31.9922 33.5449 31.9434 34.0332C31.7773 35.7227 31.1328 37.1387 30 38.3203C27.2363 41.1816 22.6953 41.1621 19.9609 38.2715C18.8477 37.0898 18.2227 35.6934 18.0566 34.0332C18.0078 33.5547 17.9688 29.1895 17.9688 24.3359V15.5273H25H32.0312V24.3359ZM47.6562 24.3066C47.6562 29.6973 47.6172 33.4668 47.5586 34.082C47.373 35.8301 46.748 37.1484 45.5176 38.3887C43.9648 39.9414 42.0508 40.625 39.8633 40.4102C37.2949 40.166 34.9609 38.291 34.043 35.752C33.6328 34.6094 33.5938 33.6621 33.5938 24.3066V15.5273H40.625H47.6562V24.3066Z" fill="white"></path>
    </g>
    <defs>
        <clipPath id="clip0_422_5648">
            <rect width="50" height="50" fill="white"></rect>
        </clipPath>
    </defs>
</svg>