<svg xmlns="http://www.w3.org/2000/svg" xmlns:xlink="http://www.w3.org/1999/xlink" version="1.1" id="Слой_1" x="0px" y="0px" viewBox="0 0 27 27" style="enable-background:new 0 0 27 27;" xml:space="preserve">
<style type="text/css">
	.st0{fill:#EC1C24;}
	.st1{fill:#FFFFFF;}
</style>
<polygon class="st0" points="5.4,0 0,5.4 0,25.3 1.6,27 21.6,27 27,21.6 27,1.6 25.3,0 "/>
<polygon class="st1" points="25.3,0 19.3,6.1 19.3,14.9 14.3,8.1 3.8,8.1 3.8,10.2 6.9,10.2 6.9,18.4 0,25.3 0,27 1.6,27 9.2,19.3   9.2,10.2 12.3,10.2 12.3,18.9 14.6,18.9 14.6,12 19.6,18.9 21.6,18.9 21.6,7 27,1.6 27,0 "/>
</svg>