<svg width="64" height="64" viewBox="0 0 64 64" fill="none" xmlns="http://www.w3.org/2000/svg">
    <path d="M9.58808 7.50693L9.28065 7.80195V29.8796V51.945L8.23539 54.0347C7.07946 56.3458 6.98109 56.7883 7.49757 57.2923L7.7927 57.5996H32.3992H57.0057L57.3009 57.2923C57.8174 56.7883 57.719 56.3703 56.563 54.047L55.5178 51.9327V29.8673V7.80195L55.2104 7.50693L54.9152 7.19961H32.3992H9.88321L9.58808 7.50693ZM31.2925 30.3099V51.2074H21.3933H11.4941V30.3099V9.41229H21.3933H31.2925V30.3099ZM53.3043 30.3099V51.2074H43.4051H33.506V30.3099V9.41229H43.4051H53.3043V30.3099ZM54.202 54.342C54.4479 54.8583 54.657 55.3009 54.657 55.3255C54.657 55.3623 44.6471 55.3869 32.3992 55.3869C20.1636 55.3869 10.1414 55.3623 10.1414 55.3255C10.1414 55.3009 10.3505 54.8583 10.5964 54.342L11.0514 53.4201H32.3992H53.747L54.202 54.342Z" fill="white"></path>
</svg>