<svg xmlns="http://www.w3.org/2000/svg" viewBox="0 0 311.09 311.52"><g fill="#c12139"><path d="m0 309.58 2 1.94 7.13-7.12 6.82 7.12 1.94-1.94-6.89-7.12 6.81-6.79-1.94-1.94-6.82 6.79-7.05-6.79-2 1.94 7.14 6.79z" opacity=".5"/><path d="m0 211.56 2 2.27 7.13-7.12 6.82 7.12 1.94-2.27-6.89-6.79 6.81-7.12-1.94-1.94-6.82 7.12-7.05-7.12-2 1.94 7.14 7.12z" opacity=".5"/><path d="m0 113.87 2 1.94 7.13-7.12 6.82 7.12 1.94-1.94-6.89-7.12 6.84-6.75-1.94-2-6.82 6.79-7.08-6.79-2 2 7.14 6.79z" opacity=".5"/><path d="m0 15.85 2 2.27 7.08-7.12 6.82 7.12 1.94-2.27-6.84-6.79 6.81-7.12-1.91-1.94-6.82 7.12-7.08-7.12-2 1.94 7.14 7.12z" opacity=".5"/><path d="m99.59 293.73-2 1.94 7.14 6.79-7.14 7.12 2 1.94 7.13-7.12 7.14 7.12 2-1.94-7.14-7.12 7.14-6.79-2-1.94-7.14 6.79z" opacity=".5"/><path d="m99.59 195.71-2 1.94 7.14 7.12-7.14 6.79 2 2.27 7.13-7.12 7.14 7.12 2-2.27-7.14-6.79 7.14-7.12-2-1.94-7.14 7.12z" opacity=".5"/><path d="m99.59 98-2 1.94 7.14 6.79-7.14 7.12 2 1.94 7.13-7.12 7.14 7.12 2-1.94-7.14-7.12 7.14-6.79-2-1.94-7.14 6.79z" opacity=".5"/><path d="m99.59 0-2 1.94 7.14 7.12-7.14 6.79 2 2.27 7.13-7.12 7.14 7.12 2-2.27-7.14-6.79 7.14-7.12-2-1.94-7.14 7.12z" opacity=".5"/><path d="m197.55 293.73-1.94 1.94 6.81 6.79-7.14 7.12 1.95 1.94 7.13-7.12 7.14 7.12 1.95-1.94-7.14-7.12 7.14-6.79-1.95-1.94-7.14 6.79z" opacity=".5"/><path d="m197.55 195.71-1.94 1.94 6.81 7.12-7.14 6.79 1.95 2.27 7.13-7.12 7.14 7.12 1.95-2.27-7.14-6.79 7.14-7.12-1.95-1.94-7.14 7.12z" opacity=".5"/><path d="m197.55 98-1.94 2 6.81 6.79-7.14 7.12 1.95 1.94 7.13-7.12 7.14 7.12 1.95-1.94-7.14-7.12 7.14-6.79-1.95-2-7.14 6.79z" opacity=".5"/><path d="m197.55 0-1.94 1.94 6.81 7.12-7.14 6.79 1.95 2.27 7.13-7.12 7.14 7.12 1.95-2.27-7.14-6.79 7.14-7.12-1.95-1.94-7.14 7.12z" opacity=".5"/><path d="m295.19 293.73-1.94 1.94 6.81 6.79-6.81 7.12 1.94 1.94 6.81-7.12 7.13 7.12 1.95-1.94-7.08-7.12 7.14-6.79-1.95-1.94-7.19 6.79z" opacity=".5"/><path d="m295.19 195.71-1.94 1.94 6.81 7.12-6.81 6.79 1.94 2.27 6.82-7.12 7.13 7.12 1.95-2.27-7.09-6.79 7.14-7.12-1.95-1.94-7.19 7.12z" opacity=".5"/><path d="m295.19 98-1.94 2 6.81 6.79-6.81 7.12 1.94 1.94 6.82-7.12 7.13 7.12 1.95-1.94-7.09-7.16 7.14-6.79-2-1.96-7.14 6.81z" opacity=".5"/><path d="m295.19 0-1.94 1.94 6.81 7.12-6.81 6.79 1.94 2.27 6.81-7.12 7.13 7.12 1.95-2.27-7.08-6.79 7.14-7.12-2-1.94-7.14 7.12z" opacity=".5"/></g></svg>