<svg width="17" height="13" viewBox="0 0 17 13" fill="none" xmlns="http://www.w3.org/2000/svg">
    <path d="M13.8125 0.125C12.6379 0.125 11.6875 1.07544 11.6875 2.25H10.625V3.3125H13.8125V2.25H12.75C12.75 1.61707 13.1796 1.1875 13.8125 1.1875C14.4454 1.1875 14.875 1.61707 14.875 2.25V5.4375H0.53125V6.5H1.16211L1.97559 10.5342V10.5508C2.09802 11.0986 2.50476 11.549 3.03809 11.7295L2.65625 12.875H3.71875L4.06738 11.8125H12.9326L13.2812 12.875H14.3438L13.9619 11.7295C14.5181 11.5593 14.9497 11.1132 15.0742 10.5508V10.5342L15.8379 6.5H16.4688V5.4375H15.9375V2.25C15.9375 1.07544 14.9871 0.125 13.8125 0.125ZM2.24121 6.5H14.7754L14.0283 10.335C13.9661 10.5653 13.771 10.75 13.4971 10.75H3.55273C3.26843 10.75 3.07544 10.5612 3.02148 10.3184L2.24121 6.5Z" fill="#C1C3C2"></path>
</svg>