<svg width="17" height="19" viewBox="0 0 17 19" fill="none" xmlns="http://www.w3.org/2000/svg">
<path d="M1.2662 8.82638C1.36636 8.92689 1.48538 9.00664 1.61642 9.06105C1.74747 9.11547 1.88797 9.14348 2.02987 9.14348C2.17177 9.14348 2.31227 9.11547 2.44331 9.06105C2.57436 9.00664 2.69338 8.92689 2.79354 8.82638L7.4196 4.20032L7.4196 17.4074C7.4196 17.6933 7.53318 17.9675 7.73537 18.1697C7.93756 18.3719 8.21178 18.4855 8.49772 18.4855C8.78366 18.4855 9.05788 18.3719 9.26007 18.1697C9.46226 17.9675 9.57585 17.6933 9.57585 17.4074L9.57585 4.20032L14.2037 8.82638C14.4062 9.02892 14.6809 9.1427 14.9674 9.1427C15.2538 9.1427 15.5285 9.02892 15.731 8.82638C15.9336 8.62384 16.0474 8.34914 16.0474 8.06271C16.0474 7.77627 15.9336 7.50157 15.731 7.29903L9.26229 0.830284C9.16213 0.729774 9.04311 0.650025 8.91206 0.59561C8.78102 0.541194 8.64052 0.513184 8.49862 0.513184C8.35672 0.513184 8.21622 0.541194 8.08517 0.59561C7.95413 0.650025 7.83511 0.729774 7.73495 0.830284L1.2662 7.29903C1.16569 7.3992 1.08594 7.51821 1.03152 7.64926C0.977108 7.78031 0.949096 7.92081 0.949096 8.06271C0.949096 8.2046 0.977108 8.3451 1.03152 8.47615C1.08594 8.6072 1.16569 8.72622 1.2662 8.82638Z" fill="#ffffff"/>
</svg>