<svg xmlns="http://www.w3.org/2000/svg" fill="none" height="40" viewBox="0 0 40 40" width="40"><g stroke="#008D00" stroke-linecap="round" stroke-linejoin="round" stroke-width="2"><path d="m20.1921 20.3835v-5.524"/><path d="m20.1889 26.4777c-.0723 0-.1415.0289-.1922.0803-.0508.0514-.0788.1209-.078.1932 0 .1512.1222.2741.2735.2751.1432-.0112.2537-.1307.2537-.2743 0-.1437-.1105-.2631-.2537-.2743"/><path d="m32.6727 21.7607-7.2364-12.86366c-1.0648-1.89651-3.0705-3.07053-5.2455-3.07053s-4.1806 1.17402-5.2455 3.07053l-9.17047 16.30176c-1.04934 1.8646-1.03034 4.1459.04989 5.9928 1.08023 1.8468 3.05941 2.9816 5.19898 2.981h12.5469"/><path d="m35.0063 27.0029-4.5836 4.5836-2.7528-2.7495"/></g></svg>