<svg xmlns="http://www.w3.org/2000/svg" width="40" height="40" viewBox="0 0 40 40" fill="none">
<g opacity="0.3">
<rect width="40" height="40" rx="4" fill="white"/>
<path d="M29.5931 15.203C29.4792 14.7804 29.2566 14.395 28.9475 14.0852C28.6383 13.7753 28.2534 13.5519 27.8311 13.437C26.2651 13.007 20.0001 13 20.0001 13C20.0001 13 13.7361 12.993 12.1691 13.404C11.747 13.5242 11.3629 13.7508 11.0537 14.0621C10.7444 14.3735 10.5204 14.7591 10.4031 15.182C9.99009 16.748 9.98609 19.996 9.98609 19.996C9.98609 19.996 9.98209 23.26 10.3921 24.81C10.6221 25.667 11.2971 26.344 12.1551 26.575C13.7371 27.005 19.9851 27.012 19.9851 27.012C19.9851 27.012 26.2501 27.019 27.8161 26.609C28.2386 26.4943 28.6238 26.2714 28.9337 25.9622C29.2436 25.653 29.4675 25.2682 29.5831 24.846C29.9971 23.281 30.0001 20.034 30.0001 20.034C30.0001 20.034 30.0201 16.769 29.5931 15.203ZM17.9961 23.005L18.0011 17.005L23.2081 20.01L17.9961 23.005Z" fill="#2D3134"/>
</g>
</svg>