<svg width="50" height="50" viewBox="0 0 50 50"  xmlns="http://www.w3.org/2000/svg">
<path fill-rule="evenodd" clip-rule="evenodd" d="M21.8405 8.48507C22.0631 9.37541 22.863 10 23.7808 10H26.2192C27.137 10 27.9369 9.37541 28.1595 8.48507L29.0382 4.97014C29.0951 4.74277 29.1313 4.51604 29.1483 4.29168C32.5233 5.23027 35 8.32587 35 11.9999H15C15 8.32587 17.4767 5.23027 20.8517 4.29168C20.8687 4.51604 20.9049 4.74277 20.9618 4.97014L21.8405 8.48507ZM25.1577 0C26.7249 0 28.0409 0.887049 28.7019 2.14418C33.4141 2.95209 37 7.05725 37 11.9999C38.6569 11.9999 40 13.3431 40 14.9999C40 16.0671 39.4428 17.004 38.6036 17.5359C38.9073 18.1122 39 18.7954 39 19.5C39 20.5785 38.7832 21.6997 38.1291 22.5739C37.5848 23.3015 36.806 23.7677 35.8307 23.9328C35.3658 26.5558 33.9714 28.8575 32 30.4856V32.939L44.9037 36.5857C47.9184 37.4377 50 40.1891 50 43.3219V48C50 49.1045 49.1046 50 48 50H2C0.895429 50 0 49.1045 0 48V43.3219C0 40.1891 2.08156 37.4377 5.0963 36.5857L18 32.939V30.4856C16.0286 28.8575 14.6342 26.5558 14.1693 23.9328C13.194 23.7677 12.4152 23.3015 11.8709 22.5739C11.2168 21.6997 11 20.5785 11 19.5C11 18.7954 11.0927 18.1122 11.3964 17.5359C10.5572 17.004 10 16.0671 10 14.9999C10 13.3431 11.3431 11.9999 13 11.9999C13 7.05725 16.5859 2.95209 21.2981 2.14418C21.9591 0.887049 23.2751 0 24.8423 0H25.1577ZM18.2724 34.9404L17 35.3V42H33V35.3L31.7276 34.9404C30.8863 37.8625 28.1928 40 25 40C21.8072 40 19.1137 37.8625 18.2724 34.9404ZM35 35.8652V42H37C37.7111 42 38.3875 42.1484 39 42.416V37H39.0154L35 35.8652ZM41 37.5609V43.9995C41.6279 44.8353 42 45.8742 42 47V48H48V43.3219C48 41.0842 46.5132 39.1189 44.3598 38.5104L41 37.5609ZM40 48V47C40 45.3431 38.6569 44 37 44H13C11.3431 44 10 45.3431 10 47V48H40ZM8 48V47C8 45.8742 8.37209 44.8353 9 43.9995V37.5609L5.64022 38.5104C3.48683 39.1189 2 41.0842 2 43.3219V48H8ZM10.9846 37H11V42.416C11.6125 42.1484 12.2889 42 13 42H15V35.8652L10.9846 37ZM36 21.8084V18.0618C36.3862 18.1206 36.5889 18.2131 36.6995 18.3026C36.8162 18.397 37 18.6314 37 19.5C37 20.3545 36.8213 20.9833 36.5277 21.3758C36.4025 21.5433 36.2356 21.6959 36 21.8084ZM25 32.9999C26.8004 32.9999 28.4999 32.5674 30 31.8005V33C30 35.7614 27.7614 38 25 38C22.2386 38 20 35.7614 20 33V31.8005C21.5001 32.5674 23.1996 32.9999 25 32.9999ZM14 18.0618V21.8084C13.7644 21.6959 13.5976 21.5433 13.4723 21.3758C13.1787 20.9833 13 20.3545 13 19.5C13 18.6314 13.1838 18.397 13.3005 18.3026C13.4111 18.2131 13.6138 18.1206 14 18.0618ZM26.2192 8H23.7808L22.902 4.48507C22.5865 3.22278 23.5412 2 24.8423 2H25.1577C26.4588 2 27.4135 3.22278 27.098 4.48507L26.2192 8ZM34 17.9999H16V21.9999C16 26.9705 20.0294 30.9999 25 30.9999C29.9706 30.9999 34 26.9705 34 21.9999V17.9999ZM12 14.9999C12 14.4477 12.4477 13.9999 13 13.9999H37C37.5523 13.9999 38 14.4477 38 14.9999C38 15.5522 37.5523 15.9999 37 15.9999H13C12.4477 15.9999 12 15.5522 12 14.9999Z" ></path>
<path opacity="0.15" fill-rule="evenodd" clip-rule="evenodd" d="M35 21C35 26.5225 30.5234 30.9995 25.001 31C27.4293 29.1755 29 26.2712 29 23V17H35V21ZM35 13V8C35 5.23858 32.7614 3 30 3L25 1.5V2.88858V13H29H35Z" ></path>
<rect opacity="0.15" x="36" y="18" width="1" height="4" ></rect>
<path opacity="0.15" d="M25 32L31 31V36L25 39V32Z" ></path>
<rect opacity="0.15" x="37" y="36" width="2" height="7" ></rect>
<rect opacity="0.15" x="13" y="36" width="2" height="7" ></rect>
<path opacity="0.15" d="M12 49C12 47.3431 13.3431 46 15 46H41V49H12V49Z" ></path>
</svg>