<svg width="50" height="50" viewBox="0 0 50 50"  xmlns="http://www.w3.org/2000/svg">
<path fill-rule="evenodd" clip-rule="evenodd" d="M1 3C0.447715 3 0 2.55228 0 2C0 1.44772 0.447715 1 1 1H8C8.55229 1 9 1.44772 9 2C9 2.55228 8.55229 3 8 3H1ZM0 6C0 6.55228 0.447715 7 1 7H3C3.55228 7 4 6.55228 4 6C4 5.44772 3.55228 5 3 5H1C0.447715 5 0 5.44772 0 6ZM32 20C32 19.4477 32.4477 19 33 19H37.6947C39.2939 19 40.8104 19.7108 41.8334 20.94L48.7541 29.2552C49.5592 30.2225 50 31.4413 50 32.6998V38.9952L50 39L50 39.0048V43C50 44.6569 48.6568 46 47 46H43.793C43.14 48.3085 41.0176 50 38.5 50C35.9824 50 33.86 48.3085 33.207 46H16.793C16.14 48.3085 14.0176 50 11.5 50C8.98245 50 6.85996 48.3085 6.20703 46H3.00001C1.34315 46 6.02007e-06 44.6569 5.06639e-06 43L0 34C0 33.4477 0.447715 33 1 33C1.55228 33 2 33.4477 2 34L2.00001 43C2.00001 43.5523 2.44772 44 3.00001 44H6.02242C6.27504 41.1968 8.63098 39 11.5 39C14.369 39 16.725 41.1968 16.9776 44H33.0224C33.275 41.1968 35.631 39 38.5 39C41.369 39 43.725 41.1968 43.9776 44H47C47.5523 44 48 43.5523 48 43L48 40H46C45.4477 40 45 39.5523 45 39C45 38.4477 45.4477 38 46 38H48L48 34H40C38.3431 34 37 32.6569 37 31V25C37 24.4477 37.4477 24 38 24H41.7781L40.2962 22.2194C39.6531 21.4468 38.6999 21 37.6947 21H33C32.4477 21 32 20.5523 32 20ZM47.2168 30.5346C47.5715 30.9607 47.8137 31.4644 47.9269 32H40C39.4477 32 39 31.5523 39 31V26H43.4427L47.2168 30.5346ZM8 44.5C8 42.567 9.567 41 11.5 41C13.433 41 15 42.567 15 44.5C15 46.433 13.433 48 11.5 48C9.567 48 8 46.433 8 44.5ZM35 44.5C35 42.567 36.567 41 38.5 41C40.433 41 42 42.567 42 44.5C42 46.433 40.433 48 38.5 48C36.567 48 35 46.433 35 44.5Z" ></path>
<path opacity="0.15" d="M41 32V28H45.1684L49 32H41Z" ></path>
<circle opacity="0.1" cx="12.5" cy="45.5" r="2.5" ></circle>
<circle opacity="0.15" cx="39.5" cy="45.5" r="2.5" ></circle>
<path fill-rule="evenodd" clip-rule="evenodd" d="M3.5 17C2.67157 17 2 17.6716 2 18.5C2 19.3284 2.67157 20 3.5 20C4.32843 20 5 19.3284 5 18.5C5 17.6716 4.32843 17 3.5 17ZM7 18.5C7 19.4793 6.59777 20.3647 5.94949 21C6.59777 21.6353 7 22.5207 7 23.5C7 24.4793 6.59776 25.3647 5.94949 26C6.59776 26.6353 7 27.5207 7 28.5C7 29.4793 6.59776 30.3647 5.94949 31C6.59776 31.6353 7 32.5207 7 33.5C7 33.6698 6.98791 33.8367 6.96456 34H4.91465C4.96992 33.8436 5 33.6753 5 33.5C5 32.6716 4.32843 32 3.5 32C2.67157 32 2 32.6716 2 33.5C2 33.6753 2.03008 33.8436 2.08535 34H2V36.6632C0.817526 36.1015 0 34.8962 0 33.5C0 32.5207 0.402235 31.6353 1.05051 31C0.402235 30.3647 0 29.4793 0 28.5C0 27.5207 0.402235 26.6353 1.05051 26C0.402235 25.3647 0 24.4793 0 23.5C0 22.5207 0.402234 21.6353 1.05051 21C0.402234 20.3647 0 19.4793 0 18.5C0 16.567 1.567 15 3.5 15C5.433 15 7 16.567 7 18.5ZM33 35.9495C33.6186 35.3182 34 34.4537 34 33.5C34 32.5207 33.5978 31.6353 32.9495 31C33.5978 30.3647 34 29.4793 34 28.5C34 27.5207 33.5978 26.6353 32.9495 26C33.5978 25.3647 34 24.4793 34 23.5C34 22.5207 33.5978 21.6353 32.9495 21C33.5978 20.3647 34 19.4793 34 18.5C34 16.567 32.433 15 30.5 15C28.567 15 27 16.567 27 18.5C27 19.4793 27.4022 20.3647 28.0505 21C27.4022 21.6353 27 22.5207 27 23.5C27 24.4793 27.4022 25.3647 28.0505 26C27.4022 26.6353 27 27.5207 27 28.5C27 29.4793 27.4022 30.3647 28.0505 31C27.4022 31.6353 27 32.5207 27 33.5C27 33.6698 27.0121 33.8367 27.0354 34H29.0854C29.0301 33.8436 29 33.6753 29 33.5C29 32.6716 29.6716 32 30.5 32C31.3284 32 32 32.6716 32 33.5C32 33.6753 31.9699 33.8436 31.9146 34H33V35.9495ZM2 23.5C2 22.6716 2.67157 22 3.5 22C4.32843 22 5 22.6716 5 23.5C5 24.3284 4.32843 25 3.5 25C2.67157 25 2 24.3284 2 23.5ZM3.5 27C2.67157 27 2 27.6716 2 28.5C2 29.3284 2.67157 30 3.5 30C4.32843 30 5 29.3284 5 28.5C5 27.6716 4.32843 27 3.5 27ZM29 18.5C29 19.3284 29.6716 20 30.5 20C31.3284 20 32 19.3284 32 18.5C32 17.6716 31.3284 17 30.5 17C29.6716 17 29 17.6716 29 18.5ZM29 28.5C29 29.3284 29.6716 30 30.5 30C31.3284 30 32 29.3284 32 28.5C32 27.6716 31.3284 27 30.5 27C29.6716 27 29 27.6716 29 28.5ZM29 23.5C29 22.6716 29.6716 22 30.5 22C31.3284 22 32 22.6716 32 23.5C32 24.3284 31.3284 25 30.5 25C29.6716 25 29 24.3284 29 23.5Z" ></path>
<path fill-rule="evenodd" clip-rule="evenodd" d="M17.6171 2.2131C17.2547 1.9289 16.745 1.92897 16.3826 2.21331L16.3822 2.21368L15.7643 2.69911L2.38217 13.2137C1.9479 13.5549 1.87246 14.1835 2.21367 14.6178C2.55489 15.0521 3.18354 15.1275 3.61781 14.7863L3.61848 14.7858L17 4.27175L30.3822 14.7863C30.8164 15.1275 31.4451 15.0521 31.7863 14.6178C32.1275 14.1835 32.0521 13.5549 31.6178 13.2137L31.6171 13.2131L31.6168 13.2129L18.2356 2.69911L17.6178 2.21368L18.8535 0.641045L23 3.89904V2C23 0.89543 23.8954 8.9407e-08 25 8.9407e-08H28C29.1046 8.9407e-08 30 0.895431 30 2V4V9.39904L32.8535 11.641C34.1563 12.6647 34.3826 14.5507 33.3589 15.8535C32.3353 17.1563 30.4493 17.3826 29.1465 16.359L17 6.81525L4.85345 16.359C3.55064 17.3826 1.66468 17.1563 0.641035 15.8535C-0.382605 14.5506 -0.156288 12.6647 1.14653 11.641L15.1465 0.641044C16.2344 -0.213681 17.7656 -0.213681 18.8535 0.641044L17.6178 2.21368L17.6171 2.2131ZM28 3H27C26.4477 3 26 3.44772 26 4C26 4.55228 26.4477 5 27 5H28V7.82761L25 5.47047V2H28V3ZM11 18C11 16.8954 11.8954 16 13 16H17H21C22.1046 16 23 16.8954 23 18V22V26C23 27.1046 22.1046 28 21 28H13C11.8954 28 11 27.1046 11 26V22V18ZM16 18H13V21H16V18ZM18 21V18H21V21H18ZM16 23H13V26H16V23ZM18 26V23H21V26H18ZM1.99999 34C1.44771 34 0.999993 34.4477 0.999993 35C0.999993 35.5523 1.44771 36 1.99999 36H33C33.5523 36 34 35.5523 34 35C34 34.4477 33.5523 34 33 34H1.99999Z" ></path>
<path opacity="0.15" fill-rule="evenodd" clip-rule="evenodd" d="M18.2612 10.5247L24.2612 15.3997C24.7286 15.7795 25 16.3497 25 16.9519V30C25 31.1046 24.1046 32 23 32H11C9.89543 32 9 31.1046 9 30V16.9519C9 16.3497 9.27139 15.7795 9.73881 15.3997L15.7388 10.5247C16.4736 9.92768 17.5264 9.92768 18.2612 10.5247ZM22 17H12V27H22V17Z" ></path>
</svg>