<svg width="50" height="50" viewBox="0 0 50 50" xmlns="http://www.w3.org/2000/svg">
<path fill-rule="evenodd" clip-rule="evenodd" d="M25.8498 0.37061C25.3379 0.0186929 24.6621 0.018694 24.1502 0.37061L0.866942 16.3779C0.324233 16.751 0 17.3673 0 18.0259V47.9999C0 49.1045 0.89543 49.9999 2 49.9999H48C49.1046 49.9999 50 49.1045 50 47.9999V18.0259C50 17.3673 49.6758 16.751 49.1331 16.3779L42 11.4739V4.99991C42 3.89534 41.1046 2.99991 40 2.99991H37C35.8954 2.99991 35 3.89534 35 4.99991V6.66138L25.8498 0.37061ZM35.4335 9.38645L25 2.21344L2 18.0259L2 47.9999H48V18.0259L40.4335 12.8239L40 12.5259V11.9999V4.99991H37V8.56241V10.4634L35.4335 9.38645ZM44.5496 18.6645L25.5496 6.16449C25.2161 5.94505 24.7839 5.94505 24.4504 6.16449L5.45038 18.6645C5.16925 18.8494 5 19.1634 5 19.4999V43.9999C5 44.5522 5.44772 44.9999 6 44.9999H44C44.5523 44.9999 45 44.5522 45 43.9999V19.4999C45 19.1634 44.8307 18.8494 44.5496 18.6645ZM7 42.9999V20.039L25 8.19691L43 20.039V42.9999H7Z" ></path>
<path fill-rule="evenodd" clip-rule="evenodd" d="M22 26C22.5523 26 23 26.4477 23 27V39H24.5858L27 36.5858V35.4142L25.2929 33.7071C24.9024 33.3166 24.9024 32.6834 25.2929 32.2929L27 30.5858V27C27 26.4477 27.4477 26 28 26C28.5523 26 29 26.4477 29 27V31C29 31.2652 28.8946 31.5196 28.7071 31.7071L27.4142 33L28.7071 34.2929C28.8946 34.4804 29 34.7348 29 35V37C29 37.2652 28.8946 37.5196 28.7071 37.7071L25.7071 40.7071C25.5196 40.8946 25.2652 41 25 41H23C21.8954 41 21 40.1046 21 39V27C21 26.4477 21.4477 26 22 26Z" ></path>
<path d="M32 21C32 17.134 28.866 14 25 14C21.134 14 18 17.134 18 21C18 24.866 21.134 28 25 28C28.866 28 32 24.866 32 21ZM19.9594 21C19.9594 18.2162 22.2162 15.9594 25 15.9594C27.7838 15.9594 30.0406 18.2162 30.0406 21C30.0406 23.7838 27.7838 26.0406 25 26.0406C22.2162 26.0406 19.9594 23.7838 19.9594 21Z" ></path>
<path opacity="0.15" d="M25 32C25 30.3431 26.3431 29 28 29V29V31L27 32V37L25 39V32Z" ></path>
<circle cx="25" cy="19" r="1" ></circle>
<path opacity="0.15" fill-rule="evenodd" clip-rule="evenodd" d="M23 24C25.7614 24 28 21.7614 28 19C28 17.3137 27.1652 15.8224 25.8863 14.9167C28.8515 15.316 31.1377 17.8565 31.1377 20.931C31.1377 24.2827 28.4206 26.9998 25.0688 26.9998C22.1379 26.9998 19.6923 24.9222 19.1244 22.1593C20.0412 23.2827 21.4368 24 23 24Z" ></path>
<path opacity="0.15" d="M4 47C4 45.8954 4.89543 45 6 45H48V48H4V47Z" ></path>
<path opacity="0.15" d="M48 17L48 45L44 45L44 21C44 18.7909 45.7909 17 48 17V17Z" ></path>
<path opacity="0.15" d="M37 5H40V12.5L37 10.5V5Z" ></path>
</svg>